<svg width="139" height="50" viewBox="0 0 139 50" fill="none" xmlns="http://www.w3.org/2000/svg">
<rect width="139" height="50" rx="8" fill="#9871F5"/>
<path d="M32.174 31.216C31.454 31.216 30.77 31.144 30.122 31C29.474 30.856 28.898 30.628 28.394 30.316C27.902 29.992 27.512 29.59 27.224 29.11C26.948 28.618 26.81 28.024 26.81 27.328C26.81 27.268 26.81 27.208 26.81 27.148C26.81 27.076 26.816 27.022 26.828 26.986H29.492C29.48 27.022 29.474 27.07 29.474 27.13C29.474 27.19 29.474 27.244 29.474 27.292C29.474 27.676 29.576 28 29.78 28.264C29.996 28.528 30.308 28.726 30.716 28.858C31.124 28.99 31.598 29.056 32.138 29.056C32.486 29.056 32.792 29.038 33.056 29.002C33.332 28.954 33.572 28.894 33.776 28.822C33.992 28.738 34.166 28.642 34.298 28.534C34.442 28.426 34.544 28.3 34.604 28.156C34.676 28.012 34.712 27.85 34.712 27.67C34.712 27.346 34.604 27.082 34.388 26.878C34.184 26.674 33.896 26.5 33.524 26.356C33.164 26.212 32.756 26.08 32.3 25.96C31.844 25.84 31.376 25.72 30.896 25.6C30.416 25.468 29.948 25.312 29.492 25.132C29.036 24.94 28.628 24.712 28.268 24.448C27.908 24.184 27.62 23.848 27.404 23.44C27.188 23.032 27.08 22.54 27.08 21.964C27.08 21.352 27.206 20.824 27.458 20.38C27.722 19.936 28.088 19.57 28.556 19.282C29.024 18.994 29.564 18.784 30.176 18.652C30.788 18.508 31.454 18.436 32.174 18.436C32.846 18.436 33.482 18.508 34.082 18.652C34.682 18.784 35.21 19 35.666 19.3C36.122 19.6 36.476 19.978 36.728 20.434C36.992 20.89 37.124 21.43 37.124 22.054V22.27H34.514V22.126C34.514 21.802 34.418 21.526 34.226 21.298C34.034 21.07 33.764 20.89 33.416 20.758C33.068 20.626 32.66 20.56 32.192 20.56C31.688 20.56 31.256 20.608 30.896 20.704C30.548 20.8 30.278 20.944 30.086 21.136C29.906 21.316 29.816 21.532 29.816 21.784C29.816 22.072 29.918 22.312 30.122 22.504C30.338 22.684 30.626 22.846 30.986 22.99C31.358 23.122 31.772 23.242 32.228 23.35C32.684 23.458 33.152 23.578 33.632 23.71C34.112 23.842 34.58 23.998 35.036 24.178C35.492 24.358 35.9 24.586 36.26 24.862C36.62 25.126 36.908 25.456 37.124 25.852C37.34 26.248 37.448 26.722 37.448 27.274C37.448 28.222 37.22 28.984 36.764 29.56C36.308 30.136 35.684 30.556 34.892 30.82C34.1 31.084 33.194 31.216 32.174 31.216ZM43.7248 31.216C42.6928 31.216 41.8168 31.042 41.0968 30.694C40.3768 30.334 39.8308 29.788 39.4588 29.056C39.0868 28.312 38.9008 27.382 38.9008 26.266C38.9008 25.126 39.0868 24.196 39.4588 23.476C39.8308 22.744 40.3768 22.204 41.0968 21.856C41.8168 21.496 42.6928 21.316 43.7248 21.316C44.7808 21.316 45.6628 21.496 46.3708 21.856C47.0908 22.204 47.6368 22.744 48.0088 23.476C48.3808 24.196 48.5668 25.126 48.5668 26.266C48.5668 27.382 48.3808 28.312 48.0088 29.056C47.6368 29.788 47.0908 30.334 46.3708 30.694C45.6628 31.042 44.7808 31.216 43.7248 31.216ZM43.7248 29.272C44.2768 29.272 44.7148 29.17 45.0388 28.966C45.3748 28.762 45.6208 28.45 45.7768 28.03C45.9328 27.61 46.0108 27.094 46.0108 26.482V26.05C46.0108 25.438 45.9328 24.922 45.7768 24.502C45.6208 24.082 45.3748 23.77 45.0388 23.566C44.7148 23.35 44.2768 23.242 43.7248 23.242C43.1848 23.242 42.7468 23.35 42.4108 23.566C42.0868 23.77 41.8468 24.082 41.6908 24.502C41.5348 24.922 41.4568 25.438 41.4568 26.05V26.482C41.4568 27.094 41.5348 27.61 41.6908 28.03C41.8468 28.45 42.0868 28.762 42.4108 28.966C42.7468 29.17 43.1848 29.272 43.7248 29.272ZM55.6999 31.216C55.0879 31.216 54.5239 31.096 54.0079 30.856C53.5039 30.604 53.0959 30.226 52.7839 29.722H52.6579L52.4599 31H50.4079V17.986H52.9099V22.576H53.0179C53.2099 22.3 53.4439 22.066 53.7199 21.874C53.9959 21.682 54.3079 21.544 54.6559 21.46C55.0039 21.364 55.3819 21.316 55.7899 21.316C56.5339 21.316 57.1819 21.49 57.7339 21.838C58.2979 22.186 58.7359 22.726 59.0479 23.458C59.3599 24.178 59.5159 25.108 59.5159 26.248C59.5159 27.388 59.3599 28.324 59.0479 29.056C58.7479 29.788 58.3099 30.334 57.7339 30.694C57.1699 31.042 56.4919 31.216 55.6999 31.216ZM54.9259 29.164C55.4299 29.164 55.8259 29.068 56.1139 28.876C56.4139 28.672 56.6299 28.372 56.7619 27.976C56.8939 27.58 56.9599 27.082 56.9599 26.482V26.068C56.9599 25.468 56.8939 24.97 56.7619 24.574C56.6299 24.166 56.4139 23.866 56.1139 23.674C55.8259 23.47 55.4299 23.368 54.9259 23.368C54.5659 23.368 54.2599 23.434 54.0079 23.566C53.7559 23.686 53.5459 23.866 53.3779 24.106C53.2219 24.334 53.1019 24.622 53.0179 24.97C52.9339 25.318 52.8919 25.702 52.8919 26.122V26.446C52.8919 27.01 52.9639 27.496 53.1079 27.904C53.2519 28.312 53.4739 28.624 53.7739 28.84C54.0739 29.056 54.4579 29.164 54.9259 29.164ZM61.359 31V21.532H63.429L63.627 23.008H63.753C63.873 22.696 64.029 22.414 64.221 22.162C64.413 21.898 64.653 21.688 64.941 21.532C65.229 21.376 65.565 21.298 65.949 21.298C66.153 21.298 66.339 21.322 66.507 21.37C66.675 21.406 66.801 21.442 66.885 21.478V23.746H66.111C65.739 23.746 65.409 23.8 65.121 23.908C64.845 24.004 64.611 24.16 64.419 24.376C64.227 24.592 64.083 24.856 63.987 25.168C63.903 25.48 63.861 25.846 63.861 26.266V31H61.359ZM72.3231 31.216C71.2791 31.216 70.4031 31.042 69.6951 30.694C68.9871 30.334 68.4531 29.788 68.0931 29.056C67.7331 28.324 67.5531 27.394 67.5531 26.266C67.5531 25.126 67.7331 24.196 68.0931 23.476C68.4531 22.744 68.9811 22.204 69.6771 21.856C70.3851 21.496 71.2491 21.316 72.2691 21.316C73.2291 21.316 74.0391 21.49 74.6991 21.838C75.3591 22.174 75.8571 22.702 76.1931 23.422C76.5291 24.13 76.6971 25.048 76.6971 26.176V26.824H70.0911C70.1151 27.376 70.1991 27.844 70.3431 28.228C70.4991 28.612 70.7331 28.9 71.0451 29.092C71.3691 29.272 71.7951 29.362 72.3231 29.362C72.6111 29.362 72.8691 29.326 73.0971 29.254C73.3371 29.182 73.5411 29.074 73.7091 28.93C73.8771 28.786 74.0091 28.606 74.1051 28.39C74.2011 28.174 74.2491 27.928 74.2491 27.652H76.6971C76.6971 28.252 76.5891 28.774 76.3731 29.218C76.1571 29.662 75.8571 30.034 75.4731 30.334C75.0891 30.622 74.6271 30.844 74.0871 31C73.5591 31.144 72.9711 31.216 72.3231 31.216ZM70.1271 25.24H74.1231C74.1231 24.88 74.0751 24.568 73.9791 24.304C73.8951 24.04 73.7751 23.824 73.6191 23.656C73.4631 23.488 73.2711 23.368 73.0431 23.296C72.8271 23.212 72.5811 23.17 72.3051 23.17C71.8491 23.17 71.4651 23.248 71.1531 23.404C70.8531 23.548 70.6191 23.776 70.4511 24.088C70.2951 24.388 70.1871 24.772 70.1271 25.24ZM82.0661 31V21.532H84.1361L84.3341 22.828H84.4601C84.6761 22.516 84.9341 22.246 85.2341 22.018C85.5461 21.79 85.8941 21.616 86.2781 21.496C86.6621 21.376 87.0821 21.316 87.5381 21.316C88.1621 21.316 88.7081 21.43 89.1761 21.658C89.6441 21.886 90.0041 22.246 90.2561 22.738C90.5201 23.23 90.6521 23.872 90.6521 24.664V31H88.1501V25.06C88.1501 24.76 88.1141 24.508 88.0421 24.304C87.9701 24.088 87.8621 23.914 87.7181 23.782C87.5861 23.638 87.4181 23.536 87.2141 23.476C87.0101 23.416 86.7821 23.386 86.5301 23.386C86.1581 23.386 85.8221 23.476 85.5221 23.656C85.2221 23.836 84.9881 24.082 84.8201 24.394C84.6521 24.706 84.5681 25.066 84.5681 25.474V31H82.0661ZM97.2502 31.216C96.2182 31.216 95.3422 31.042 94.6222 30.694C93.9022 30.334 93.3562 29.788 92.9842 29.056C92.6122 28.312 92.4262 27.382 92.4262 26.266C92.4262 25.126 92.6122 24.196 92.9842 23.476C93.3562 22.744 93.9022 22.204 94.6222 21.856C95.3422 21.496 96.2182 21.316 97.2502 21.316C98.3062 21.316 99.1882 21.496 99.8962 21.856C100.616 22.204 101.162 22.744 101.534 23.476C101.906 24.196 102.092 25.126 102.092 26.266C102.092 27.382 101.906 28.312 101.534 29.056C101.162 29.788 100.616 30.334 99.8962 30.694C99.1882 31.042 98.3062 31.216 97.2502 31.216ZM97.2502 29.272C97.8022 29.272 98.2402 29.17 98.5642 28.966C98.9002 28.762 99.1462 28.45 99.3022 28.03C99.4582 27.61 99.5362 27.094 99.5362 26.482V26.05C99.5362 25.438 99.4582 24.922 99.3022 24.502C99.1462 24.082 98.9002 23.77 98.5642 23.566C98.2402 23.35 97.8022 23.242 97.2502 23.242C96.7102 23.242 96.2722 23.35 95.9362 23.566C95.6122 23.77 95.3722 24.082 95.2162 24.502C95.0602 24.922 94.9822 25.438 94.9822 26.05V26.482C94.9822 27.094 95.0602 27.61 95.2162 28.03C95.3722 28.45 95.6122 28.762 95.9362 28.966C96.2722 29.17 96.7102 29.272 97.2502 29.272ZM95.9542 20.362L97.4482 17.986H100.04L100.058 18.04L97.9162 20.362H95.9542ZM107.767 31.216C107.107 31.216 106.513 31.144 105.985 31C105.457 30.856 105.007 30.658 104.635 30.406C104.263 30.142 103.975 29.83 103.771 29.47C103.579 29.11 103.483 28.702 103.483 28.246C103.483 28.198 103.483 28.15 103.483 28.102C103.483 28.054 103.489 28.018 103.501 27.994H105.913C105.913 28.018 105.913 28.042 105.913 28.066C105.913 28.09 105.913 28.114 105.913 28.138C105.925 28.438 106.021 28.684 106.201 28.876C106.381 29.056 106.615 29.188 106.903 29.272C107.203 29.356 107.515 29.398 107.839 29.398C108.127 29.398 108.403 29.374 108.667 29.326C108.943 29.266 109.171 29.164 109.351 29.02C109.543 28.876 109.639 28.69 109.639 28.462C109.639 28.174 109.519 27.952 109.279 27.796C109.051 27.64 108.745 27.514 108.361 27.418C107.989 27.322 107.581 27.214 107.137 27.094C106.729 26.998 106.321 26.89 105.913 26.77C105.505 26.638 105.133 26.47 104.797 26.266C104.473 26.062 104.209 25.798 104.005 25.474C103.801 25.138 103.699 24.718 103.699 24.214C103.699 23.722 103.807 23.296 104.023 22.936C104.239 22.564 104.533 22.258 104.905 22.018C105.289 21.778 105.733 21.604 106.237 21.496C106.753 21.376 107.305 21.316 107.893 21.316C108.445 21.316 108.961 21.376 109.441 21.496C109.921 21.604 110.341 21.772 110.701 22C111.061 22.216 111.343 22.492 111.547 22.828C111.751 23.152 111.853 23.518 111.853 23.926C111.853 24.01 111.853 24.088 111.853 24.16C111.853 24.232 111.847 24.28 111.835 24.304H109.441V24.16C109.441 23.944 109.375 23.764 109.243 23.62C109.111 23.464 108.919 23.344 108.667 23.26C108.427 23.176 108.133 23.134 107.785 23.134C107.545 23.134 107.323 23.152 107.119 23.188C106.927 23.224 106.759 23.278 106.615 23.35C106.471 23.422 106.357 23.512 106.273 23.62C106.201 23.716 106.165 23.836 106.165 23.98C106.165 24.184 106.249 24.352 106.417 24.484C106.597 24.604 106.831 24.706 107.119 24.79C107.407 24.874 107.725 24.964 108.073 25.06C108.505 25.18 108.955 25.3 109.423 25.42C109.903 25.528 110.347 25.678 110.755 25.87C111.163 26.062 111.493 26.338 111.745 26.698C111.997 27.046 112.123 27.52 112.123 28.12C112.123 28.696 112.009 29.182 111.781 29.578C111.565 29.974 111.259 30.292 110.863 30.532C110.467 30.772 110.005 30.946 109.477 31.054C108.949 31.162 108.379 31.216 107.767 31.216Z" fill="white"/>
</svg>
