<svg width="250" height="56" viewBox="0 0 250 56" fill="none" xmlns="http://www.w3.org/2000/svg">
<rect width="250" height="56" rx="8" fill="#04D361"/>
<path d="M93.08 33L97.352 22.024H99.976L104.264 33H102.008L101.128 30.664H96.104L95.224 33H93.08ZM96.76 28.904H100.456L99.352 25.928C99.3093 25.8213 99.256 25.688 99.192 25.528C99.1387 25.3573 99.08 25.176 99.016 24.984C98.952 24.7813 98.888 24.5787 98.824 24.376C98.76 24.1733 98.7013 23.992 98.648 23.832H98.568C98.504 24.0453 98.424 24.2907 98.328 24.568C98.2427 24.8453 98.1573 25.1067 98.072 25.352C97.9867 25.5973 97.9173 25.7893 97.864 25.928L96.76 28.904ZM108.312 33.192C107.629 33.192 107.037 33.0373 106.536 32.728C106.034 32.4187 105.645 31.9387 105.368 31.288C105.101 30.6373 104.968 29.8 104.968 28.776C104.968 27.7627 105.106 26.936 105.384 26.296C105.661 25.6453 106.045 25.1653 106.536 24.856C107.026 24.5467 107.581 24.392 108.2 24.392C108.584 24.392 108.936 24.4347 109.256 24.52C109.576 24.6053 109.858 24.7387 110.104 24.92C110.349 25.0907 110.557 25.304 110.728 25.56H110.824V21.432H112.776V33H111.16L111 31.88H110.888C110.621 32.3173 110.258 32.648 109.8 32.872C109.352 33.0853 108.856 33.192 108.312 33.192ZM108.92 31.512C109.368 31.512 109.73 31.4107 110.008 31.208C110.285 31.0053 110.488 30.712 110.616 30.328C110.754 29.944 110.824 29.4747 110.824 28.92V28.712C110.824 28.296 110.786 27.9227 110.712 27.592C110.637 27.2613 110.52 26.984 110.36 26.76C110.21 26.536 110.013 26.3653 109.768 26.248C109.533 26.1307 109.25 26.072 108.92 26.072C108.44 26.072 108.056 26.168 107.768 26.36C107.49 26.5413 107.288 26.8293 107.16 27.224C107.042 27.608 106.984 28.0987 106.984 28.696V28.92C106.984 29.5067 107.042 29.992 107.16 30.376C107.288 30.76 107.49 31.048 107.768 31.24C108.056 31.4213 108.44 31.512 108.92 31.512ZM118.597 33.192C117.679 33.192 116.911 33.0373 116.293 32.728C115.674 32.408 115.21 31.9227 114.901 31.272C114.591 30.6213 114.437 29.7947 114.437 28.792C114.437 27.7787 114.591 26.952 114.901 26.312C115.21 25.6613 115.674 25.1813 116.293 24.872C116.911 24.552 117.679 24.392 118.597 24.392C119.525 24.392 120.293 24.552 120.901 24.872C121.519 25.1813 121.983 25.6613 122.293 26.312C122.602 26.952 122.757 27.7787 122.757 28.792C122.757 29.7947 122.602 30.6213 122.293 31.272C121.983 31.9227 121.519 32.408 120.901 32.728C120.293 33.0373 119.525 33.192 118.597 33.192ZM118.597 31.592C119.109 31.592 119.519 31.496 119.829 31.304C120.149 31.1013 120.378 30.8027 120.517 30.408C120.666 30.0027 120.741 29.5013 120.741 28.904V28.68C120.741 28.0827 120.666 27.5867 120.517 27.192C120.378 26.7867 120.149 26.488 119.829 26.296C119.519 26.0933 119.109 25.992 118.597 25.992C118.085 25.992 117.669 26.0933 117.349 26.296C117.039 26.488 116.81 26.7867 116.661 27.192C116.522 27.5867 116.453 28.0827 116.453 28.68V28.904C116.453 29.5013 116.522 30.0027 116.661 30.408C116.81 30.8027 117.039 31.1013 117.349 31.304C117.669 31.496 118.085 31.592 118.597 31.592ZM126.639 33.192C126.116 33.192 125.706 33.0907 125.407 32.888C125.108 32.6747 124.895 32.408 124.767 32.088C124.65 31.7573 124.591 31.4213 124.591 31.08V26.184H123.583V24.584H124.639L124.991 22.232H126.543V24.584H127.999V26.184H126.543V30.888C126.543 31.112 126.602 31.288 126.719 31.416C126.836 31.5333 127.012 31.592 127.247 31.592H127.999V32.936C127.892 32.9787 127.759 33.016 127.599 33.048C127.45 33.0907 127.29 33.1227 127.119 33.144C126.948 33.176 126.788 33.192 126.639 33.192ZM131.606 33.192C131.372 33.192 131.1 33.16 130.79 33.096C130.492 33.0427 130.198 32.936 129.91 32.776C129.633 32.616 129.404 32.3813 129.222 32.072C129.041 31.752 128.95 31.336 128.95 30.824C128.95 30.248 129.078 29.7733 129.334 29.4C129.59 29.016 129.948 28.7173 130.406 28.504C130.876 28.28 131.43 28.1253 132.07 28.04C132.721 27.944 133.43 27.896 134.198 27.896V27.208C134.198 26.9627 134.161 26.744 134.086 26.552C134.012 26.36 133.873 26.2107 133.67 26.104C133.478 25.9867 133.185 25.928 132.79 25.928C132.396 25.928 132.086 25.976 131.862 26.072C131.638 26.168 131.484 26.2853 131.398 26.424C131.313 26.5627 131.27 26.7067 131.27 26.856V27.08H129.382C129.372 27.0267 129.366 26.9733 129.366 26.92C129.366 26.8667 129.366 26.8027 129.366 26.728C129.366 26.248 129.51 25.832 129.798 25.48C130.086 25.128 130.486 24.8613 130.998 24.68C131.51 24.488 132.102 24.392 132.774 24.392C133.542 24.392 134.172 24.4987 134.662 24.712C135.164 24.9253 135.537 25.2293 135.782 25.624C136.028 26.0187 136.15 26.4987 136.15 27.064V31.032C136.15 31.2347 136.209 31.3787 136.326 31.464C136.444 31.5493 136.572 31.592 136.71 31.592H137.222V32.936C137.116 32.9787 136.961 33.0267 136.758 33.08C136.556 33.144 136.305 33.176 136.006 33.176C135.729 33.176 135.478 33.128 135.254 33.032C135.041 32.9467 134.86 32.8187 134.71 32.648C134.561 32.4773 134.454 32.2747 134.39 32.04H134.294C134.113 32.264 133.894 32.4667 133.638 32.648C133.393 32.8187 133.1 32.952 132.758 33.048C132.428 33.144 132.044 33.192 131.606 33.192ZM132.198 31.592C132.518 31.592 132.801 31.544 133.046 31.448C133.302 31.352 133.51 31.2187 133.67 31.048C133.841 30.8773 133.969 30.6693 134.054 30.424C134.15 30.1787 134.198 29.912 134.198 29.624V29.24C133.612 29.24 133.068 29.2773 132.566 29.352C132.076 29.4267 131.681 29.5653 131.382 29.768C131.094 29.9707 130.95 30.2587 130.95 30.632C130.95 30.824 130.993 30.9947 131.078 31.144C131.174 31.2827 131.313 31.3947 131.494 31.48C131.686 31.5547 131.921 31.592 132.198 31.592ZM141.265 33.192C140.582 33.192 139.99 33.0373 139.489 32.728C138.988 32.4187 138.598 31.9387 138.321 31.288C138.054 30.6373 137.921 29.8 137.921 28.776C137.921 27.7627 138.06 26.936 138.337 26.296C138.614 25.6453 138.998 25.1653 139.489 24.856C139.98 24.5467 140.534 24.392 141.153 24.392C141.537 24.392 141.889 24.4347 142.209 24.52C142.529 24.6053 142.812 24.7387 143.057 24.92C143.302 25.0907 143.51 25.304 143.681 25.56H143.777V21.432H145.729V33H144.113L143.953 31.88H143.841C143.574 32.3173 143.212 32.648 142.753 32.872C142.305 33.0853 141.809 33.192 141.265 33.192ZM141.873 31.512C142.321 31.512 142.684 31.4107 142.961 31.208C143.238 31.0053 143.441 30.712 143.569 30.328C143.708 29.944 143.777 29.4747 143.777 28.92V28.712C143.777 28.296 143.74 27.9227 143.665 27.592C143.59 27.2613 143.473 26.984 143.313 26.76C143.164 26.536 142.966 26.3653 142.721 26.248C142.486 26.1307 142.204 26.072 141.873 26.072C141.393 26.072 141.009 26.168 140.721 26.36C140.444 26.5413 140.241 26.8293 140.113 27.224C139.996 27.608 139.937 28.0987 139.937 28.696V28.92C139.937 29.5067 139.996 29.992 140.113 30.376C140.241 30.76 140.444 31.048 140.721 31.24C141.009 31.4213 141.393 31.512 141.873 31.512ZM151.55 33.192C150.632 33.192 149.864 33.0373 149.246 32.728C148.627 32.408 148.163 31.9227 147.854 31.272C147.544 30.6213 147.39 29.7947 147.39 28.792C147.39 27.7787 147.544 26.952 147.854 26.312C148.163 25.6613 148.627 25.1813 149.246 24.872C149.864 24.552 150.632 24.392 151.55 24.392C152.478 24.392 153.246 24.552 153.854 24.872C154.472 25.1813 154.936 25.6613 155.246 26.312C155.555 26.952 155.71 27.7787 155.71 28.792C155.71 29.7947 155.555 30.6213 155.246 31.272C154.936 31.9227 154.472 32.408 153.854 32.728C153.246 33.0373 152.478 33.192 151.55 33.192ZM151.55 31.592C152.062 31.592 152.472 31.496 152.782 31.304C153.102 31.1013 153.331 30.8027 153.47 30.408C153.619 30.0027 153.694 29.5013 153.694 28.904V28.68C153.694 28.0827 153.619 27.5867 153.47 27.192C153.331 26.7867 153.102 26.488 152.782 26.296C152.472 26.0933 152.062 25.992 151.55 25.992C151.038 25.992 150.622 26.0933 150.302 26.296C149.992 26.488 149.763 26.7867 149.614 27.192C149.475 27.5867 149.406 28.0827 149.406 28.68V28.904C149.406 29.5013 149.475 30.0027 149.614 30.408C149.763 30.8027 149.992 31.1013 150.302 31.304C150.622 31.496 151.038 31.592 151.55 31.592Z" fill="white"/>
</svg>
