<svg width="255" height="586" viewBox="0 0 255 586" fill="none" xmlns="http://www.w3.org/2000/svg">
<path d="M74.3501 1.74979C74.3501 2.71602 75.1378 3.4993 76.1095 3.4993C77.0811 3.4993 77.8688 2.71602 77.8688 1.74979C77.8688 0.783559 77.0811 0.000274624 76.1095 0.000274581C75.1378 0.000274539 74.3501 0.783559 74.3501 1.74979Z" fill="#9871F5"/>
<path d="M74.3501 13.9703C74.3501 14.9366 75.1378 15.7199 76.1095 15.7199C77.0811 15.7199 77.8688 14.9366 77.8688 13.9703C77.8688 13.0041 77.0811 12.2208 76.1095 12.2208C75.1378 12.2208 74.3501 13.0041 74.3501 13.9703Z" fill="#9871F5"/>
<path d="M74.3501 26.1799C74.3501 27.1461 75.1378 27.9294 76.1095 27.9294C77.0811 27.9294 77.8688 27.1461 77.8688 26.1799C77.8688 25.2136 77.0811 24.4304 76.1095 24.4304C75.1378 24.4304 74.3501 25.2136 74.3501 26.1799Z" fill="#9871F5"/>
<path d="M74.3501 38.4002C74.3501 39.3664 75.1378 40.1497 76.1095 40.1497C77.0811 40.1497 77.8688 39.3664 77.8688 38.4002C77.8688 37.434 77.0811 36.6507 76.1095 36.6507C75.1378 36.6507 74.3501 37.434 74.3501 38.4002Z" fill="#9871F5"/>
<path d="M74.3501 50.6107C74.3501 51.577 75.1378 52.3603 76.1095 52.3603C77.0811 52.3603 77.8688 51.577 77.8688 50.6107C77.8688 49.6445 77.0811 48.8612 76.1095 48.8612C75.1378 48.8612 74.3501 49.6445 74.3501 50.6107Z" fill="#9871F5"/>
<path d="M74.3501 62.8306C74.3501 63.7968 75.1378 64.5801 76.1095 64.5801C77.0811 64.5801 77.8688 63.7968 77.8688 62.8306C77.8688 61.8643 77.0811 61.0811 76.1095 61.0811C75.1378 61.0811 74.3501 61.8643 74.3501 62.8306Z" fill="#9871F5"/>
<path d="M62.0701 1.74951C62.0701 2.71574 62.8578 3.49903 63.8294 3.49903C64.8011 3.49903 65.5887 2.71574 65.5887 1.74951C65.5887 0.783284 64.8011 -3.44304e-08 63.8294 -7.69023e-08C62.8578 -1.19374e-07 62.0701 0.783284 62.0701 1.74951Z" fill="#9871F5"/>
<path d="M62.0701 13.9702C62.0701 14.9364 62.8578 15.7197 63.8294 15.7197C64.8011 15.7197 65.5887 14.9364 65.5887 13.9702C65.5887 13.004 64.8011 12.2207 63.8294 12.2207C62.8578 12.2207 62.0701 13.004 62.0701 13.9702Z" fill="#9871F5"/>
<path d="M62.0701 26.1802C62.0701 27.1464 62.8578 27.9297 63.8294 27.9297C64.8011 27.9297 65.5887 27.1464 65.5887 26.1802C65.5887 25.2139 64.8011 24.4307 63.8294 24.4307C62.8578 24.4307 62.0701 25.2139 62.0701 26.1802Z" fill="#9871F5"/>
<path d="M62.0701 38.4004C62.0701 39.3666 62.8578 40.1499 63.8294 40.1499C64.8011 40.1499 65.5887 39.3666 65.5887 38.4004C65.5887 37.4342 64.8011 36.6509 63.8294 36.6509C62.8578 36.6509 62.0701 37.4342 62.0701 38.4004Z" fill="#9871F5"/>
<path d="M62.0701 50.6108C62.0701 51.5771 62.8578 52.3603 63.8294 52.3603C64.8011 52.3603 65.5887 51.5771 65.5887 50.6108C65.5887 49.6446 64.8011 48.8613 63.8294 48.8613C62.8578 48.8613 62.0701 49.6446 62.0701 50.6108Z" fill="#9871F5"/>
<path d="M62.0701 62.8306C62.0701 63.7968 62.8578 64.5801 63.8294 64.5801C64.8011 64.5801 65.5887 63.7968 65.5887 62.8306C65.5887 61.8643 64.8011 61.0811 63.8294 61.0811C62.8578 61.0811 62.0701 61.8643 62.0701 62.8306Z" fill="#9871F5"/>
<path d="M49.7809 1.74951C49.7809 2.71574 50.5686 3.49903 51.5402 3.49903C52.5119 3.49903 53.2996 2.71574 53.2996 1.74951C53.2996 0.783284 52.5119 -3.44305e-08 51.5402 -7.69024e-08C50.5686 -1.19374e-07 49.7809 0.783284 49.7809 1.74951Z" fill="#9871F5"/>
<path d="M49.7809 13.9702C49.7809 14.9364 50.5686 15.7197 51.5402 15.7197C52.5119 15.7197 53.2996 14.9364 53.2996 13.9702C53.2996 13.004 52.5119 12.2207 51.5402 12.2207C50.5686 12.2207 49.7809 13.004 49.7809 13.9702Z" fill="#9871F5"/>
<path d="M49.7809 26.1802C49.7809 27.1464 50.5686 27.9297 51.5402 27.9297C52.5119 27.9297 53.2996 27.1464 53.2996 26.1802C53.2996 25.2139 52.5119 24.4307 51.5402 24.4307C50.5686 24.4307 49.7809 25.2139 49.7809 26.1802Z" fill="#9871F5"/>
<path d="M49.7809 38.4004C49.7809 39.3666 50.5686 40.1499 51.5402 40.1499C52.5119 40.1499 53.2996 39.3666 53.2996 38.4004C53.2996 37.4342 52.5119 36.6509 51.5402 36.6509C50.5686 36.6509 49.7809 37.4342 49.7809 38.4004Z" fill="#9871F5"/>
<path d="M49.7809 50.6108C49.7809 51.5771 50.5686 52.3603 51.5402 52.3603C52.5119 52.3603 53.2996 51.5771 53.2996 50.6108C53.2996 49.6446 52.5119 48.8613 51.5402 48.8613C50.5686 48.8613 49.7809 49.6446 49.7809 50.6108Z" fill="#9871F5"/>
<path d="M49.7809 62.8306C49.7809 63.7968 50.5686 64.5801 51.5402 64.5801C52.5119 64.5801 53.2996 63.7968 53.2996 62.8306C53.2996 61.8643 52.5119 61.0811 51.5402 61.0811C50.5686 61.0811 49.7809 61.8643 49.7809 62.8306Z" fill="#9871F5"/>
<path d="M37.5011 1.74951C37.5011 2.71574 38.2888 3.49903 39.2605 3.49903C40.2321 3.49903 41.0198 2.71574 41.0198 1.74951C41.0198 0.783284 40.2321 -3.44305e-08 39.2605 -7.69025e-08C38.2888 -1.19374e-07 37.5011 0.783284 37.5011 1.74951Z" fill="#9871F5"/>
<path d="M37.5011 13.9702C37.5011 14.9364 38.2888 15.7197 39.2605 15.7197C40.2321 15.7197 41.0198 14.9364 41.0198 13.9702C41.0198 13.004 40.2321 12.2207 39.2605 12.2207C38.2888 12.2207 37.5011 13.004 37.5011 13.9702Z" fill="#9871F5"/>
<path d="M37.5011 26.1802C37.5011 27.1464 38.2888 27.9297 39.2605 27.9297C40.2321 27.9297 41.0198 27.1464 41.0198 26.1802C41.0198 25.2139 40.2321 24.4307 39.2605 24.4307C38.2888 24.4307 37.5011 25.2139 37.5011 26.1802Z" fill="#9871F5"/>
<path d="M37.5011 38.4004C37.5011 39.3666 38.2888 40.1499 39.2605 40.1499C40.2321 40.1499 41.0198 39.3666 41.0198 38.4004C41.0198 37.4342 40.2321 36.6509 39.2605 36.6509C38.2888 36.6509 37.5011 37.4342 37.5011 38.4004Z" fill="#9871F5"/>
<path d="M37.5011 50.6108C37.5011 51.5771 38.2888 52.3603 39.2605 52.3603C40.2321 52.3603 41.0198 51.5771 41.0198 50.6108C41.0198 49.6446 40.2321 48.8613 39.2605 48.8613C38.2888 48.8613 37.5011 49.6446 37.5011 50.6108Z" fill="#9871F5"/>
<path d="M37.5011 62.8306C37.5011 63.7968 38.2888 64.5801 39.2605 64.5801C40.2321 64.5801 41.0198 63.7968 41.0198 62.8306C41.0198 61.8643 40.2321 61.0811 39.2605 61.0811C38.2888 61.0811 37.5011 61.8643 37.5011 62.8306Z" fill="#9871F5"/>
<path d="M196.91 404.826C196.91 405.792 197.697 406.576 198.669 406.576C199.641 406.576 200.428 405.792 200.428 404.826C200.428 403.86 199.641 403.077 198.669 403.077C197.697 403.077 196.91 403.86 196.91 404.826Z" fill="#9871F5"/>
<path d="M196.91 417.038C196.91 418.004 197.698 418.787 198.669 418.787C199.641 418.787 200.429 418.004 200.429 417.038C200.429 416.071 199.641 415.288 198.669 415.288C197.698 415.288 196.91 416.071 196.91 417.038Z" fill="#9871F5"/>
<path d="M196.91 429.256C196.91 430.222 197.698 431.005 198.669 431.005C199.641 431.005 200.429 430.222 200.429 429.256C200.429 428.29 199.641 427.506 198.669 427.506C197.698 427.506 196.91 428.29 196.91 429.256Z" fill="#9871F5"/>
<path d="M184.621 404.826C184.621 405.792 185.408 406.575 186.38 406.575C187.352 406.575 188.139 405.792 188.139 404.826C188.139 403.859 187.352 403.076 186.38 403.076C185.408 403.076 184.621 403.859 184.621 404.826Z" fill="#9871F5"/>
<path d="M184.621 417.038C184.621 418.004 185.408 418.787 186.38 418.787C187.352 418.787 188.139 418.004 188.139 417.038C188.139 416.071 187.352 415.288 186.38 415.288C185.408 415.288 184.621 416.071 184.621 417.038Z" fill="#9871F5"/>
<path d="M184.621 429.256C184.621 430.222 185.408 431.005 186.38 431.005C187.352 431.005 188.139 430.222 188.139 429.256C188.139 428.29 187.352 427.506 186.38 427.506C185.408 427.506 184.621 428.29 184.621 429.256Z" fill="#9871F5"/>
<path d="M250.643 147.077C250.643 148.043 251.431 148.826 252.402 148.826C253.374 148.826 254.161 148.043 254.161 147.077C254.161 146.11 253.374 145.327 252.402 145.327C251.431 145.327 250.643 146.11 250.643 147.077Z" fill="#9871F5"/>
<path d="M250.643 159.287C250.643 160.253 251.431 161.036 252.402 161.036C253.374 161.036 254.162 160.253 254.162 159.287C254.162 158.321 253.374 157.537 252.402 157.537C251.431 157.537 250.643 158.321 250.643 159.287Z" fill="#9871F5"/>
<path d="M250.643 171.507C250.643 172.473 251.431 173.256 252.402 173.256C253.374 173.256 254.162 172.473 254.162 171.507C254.162 170.54 253.374 169.757 252.402 169.757C251.431 169.757 250.643 170.54 250.643 171.507Z" fill="#9871F5"/>
<path d="M238.354 147.077C238.354 148.043 239.141 148.826 240.113 148.826C241.085 148.826 241.872 148.043 241.872 147.077C241.872 146.11 241.085 145.327 240.113 145.327C239.141 145.327 238.354 146.11 238.354 147.077Z" fill="#9871F5"/>
<path d="M238.354 159.287C238.354 160.253 239.141 161.036 240.113 161.036C241.085 161.036 241.872 160.253 241.872 159.287C241.872 158.321 241.085 157.537 240.113 157.537C239.141 157.537 238.354 158.321 238.354 159.287Z" fill="#9871F5"/>
<path d="M238.354 171.507C238.354 172.473 239.141 173.257 240.113 173.257C241.085 173.257 241.872 172.473 241.872 171.507C241.872 170.541 241.085 169.758 240.113 169.758C239.141 169.758 238.354 170.541 238.354 171.507Z" fill="#9871F5"/>
<path d="M74.35 584.25C74.35 585.216 75.1377 586 76.1093 586C77.081 586 77.8687 585.216 77.8687 584.25C77.8687 583.284 77.081 582.501 76.1093 582.501C75.1377 582.501 74.35 583.284 74.35 584.25Z" fill="#9871F5"/>
<path d="M62.0607 584.25C62.0607 585.217 62.8484 586 63.82 586C64.7917 586 65.5793 585.217 65.5793 584.25C65.5793 583.284 64.7917 582.501 63.82 582.501C62.8484 582.501 62.0607 583.284 62.0607 584.25Z" fill="#9871F5"/>
<path d="M49.7808 584.25C49.7808 585.217 50.5685 586 51.5401 586C52.5118 586 53.2994 585.217 53.2994 584.25C53.2994 583.284 52.5118 582.501 51.5401 582.501C50.5685 582.501 49.7808 583.284 49.7808 584.25Z" fill="#9871F5"/>
<path d="M37.4915 584.25C37.4915 585.217 38.2792 586 39.2508 586C40.2225 586 41.0101 585.217 41.0101 584.25C41.0101 583.284 40.2225 582.501 39.2508 582.501C38.2792 582.501 37.4915 583.284 37.4915 584.25Z" fill="#9871F5"/>
<path d="M25.2117 584.251C25.2117 585.217 25.9994 586 26.971 586C27.9427 586 28.7303 585.217 28.7303 584.251C28.7303 583.284 27.9427 582.501 26.971 582.501C25.9994 582.501 25.2117 583.284 25.2117 584.251Z" fill="#9871F5"/>
<path d="M12.9225 584.251C12.9225 585.217 13.7102 586 14.6818 586C15.6535 586 16.4412 585.217 16.4412 584.251C16.4412 583.284 15.6535 582.501 14.6818 582.501C13.7102 582.501 12.9225 583.284 12.9225 584.251Z" fill="#9871F5"/>
<path d="M0.642486 584.251C0.642486 585.217 1.43016 586 2.40181 586C3.37345 586 4.16113 585.217 4.16113 584.251C4.16113 583.284 3.37345 582.501 2.40181 582.501C1.43016 582.501 0.642486 583.284 0.642486 584.251Z" fill="#9871F5"/>
<path d="M74.35 572.031C74.35 572.997 75.1377 573.78 76.1093 573.78C77.081 573.78 77.8687 572.997 77.8687 572.031C77.8687 571.065 77.081 570.281 76.1093 570.281C75.1377 570.281 74.35 571.065 74.35 572.031Z" fill="#9871F5"/>
<path d="M62.0607 572.031C62.0607 572.997 62.8484 573.78 63.82 573.78C64.7917 573.78 65.5793 572.997 65.5793 572.031C65.5793 571.065 64.7917 570.281 63.82 570.281C62.8484 570.281 62.0607 571.065 62.0607 572.031Z" fill="#9871F5"/>
<path d="M49.7808 572.031C49.7808 572.997 50.5685 573.78 51.5401 573.78C52.5118 573.78 53.2994 572.997 53.2994 572.031C53.2994 571.065 52.5118 570.281 51.5401 570.281C50.5685 570.281 49.7808 571.065 49.7808 572.031Z" fill="#9871F5"/>
<path d="M37.4915 572.031C37.4915 572.997 38.2792 573.78 39.2508 573.78C40.2225 573.78 41.0101 572.997 41.0101 572.031C41.0101 571.065 40.2225 570.281 39.2508 570.281C38.2792 570.281 37.4915 571.065 37.4915 572.031Z" fill="#9871F5"/>
<path d="M25.2117 572.031C25.2117 572.997 25.9994 573.78 26.971 573.78C27.9427 573.78 28.7303 572.997 28.7303 572.031C28.7303 571.065 27.9427 570.281 26.971 570.281C25.9994 570.281 25.2117 571.065 25.2117 572.031Z" fill="#9871F5"/>
<path d="M12.9225 572.031C12.9225 572.997 13.7102 573.78 14.6818 573.78C15.6535 573.78 16.4412 572.997 16.4412 572.031C16.4412 571.065 15.6535 570.281 14.6818 570.281C13.7102 570.281 12.9225 571.065 12.9225 572.031Z" fill="#9871F5"/>
<path d="M0.642486 572.031C0.642486 572.997 1.43016 573.78 2.40181 573.78C3.37345 573.78 4.16113 572.997 4.16113 572.031C4.16113 571.065 3.37345 570.281 2.40181 570.281C1.43016 570.281 0.642486 571.065 0.642486 572.031Z" fill="#9871F5"/>
<path d="M74.35 559.82C74.35 560.786 75.1377 561.569 76.1093 561.569C77.081 561.569 77.8687 560.786 77.8687 559.82C77.8687 558.854 77.081 558.07 76.1093 558.07C75.1377 558.07 74.35 558.854 74.35 559.82Z" fill="#9871F5"/>
<path d="M62.0607 559.82C62.0607 560.786 62.8484 561.569 63.82 561.569C64.7917 561.569 65.5793 560.786 65.5793 559.82C65.5793 558.854 64.7917 558.07 63.82 558.07C62.8484 558.07 62.0607 558.854 62.0607 559.82Z" fill="#9871F5"/>
<path d="M49.7808 559.82C49.7808 560.786 50.5685 561.569 51.5401 561.569C52.5118 561.569 53.2994 560.786 53.2994 559.82C53.2994 558.854 52.5118 558.07 51.5401 558.07C50.5685 558.07 49.7808 558.854 49.7808 559.82Z" fill="#9871F5"/>
<path d="M37.4915 559.82C37.4915 560.786 38.2792 561.569 39.2508 561.569C40.2225 561.569 41.0101 560.786 41.0101 559.82C41.0101 558.854 40.2225 558.07 39.2508 558.07C38.2792 558.07 37.4915 558.854 37.4915 559.82Z" fill="#9871F5"/>
<path d="M25.2117 559.82C25.2117 560.786 25.9994 561.569 26.971 561.569C27.9427 561.569 28.7303 560.786 28.7303 559.82C28.7303 558.854 27.9427 558.07 26.971 558.07C25.9994 558.07 25.2117 558.854 25.2117 559.82Z" fill="#9871F5"/>
<path d="M12.9225 559.82C12.9225 560.786 13.7102 561.569 14.6818 561.569C15.6535 561.569 16.4412 560.786 16.4412 559.82C16.4412 558.854 15.6535 558.07 14.6818 558.07C13.7102 558.07 12.9225 558.854 12.9225 559.82Z" fill="#9871F5"/>
<path d="M0.642486 559.82C0.642486 560.786 1.43016 561.569 2.40181 561.569C3.37345 561.569 4.16113 560.786 4.16113 559.82C4.16113 558.854 3.37345 558.07 2.40181 558.07C1.43016 558.07 0.642486 558.854 0.642486 559.82Z" fill="#9871F5"/>
<path d="M74.349 547.601C74.349 548.567 75.1367 549.35 76.1084 549.35C77.08 549.35 77.8677 548.567 77.8677 547.601C77.8677 546.634 77.08 545.851 76.1084 545.851C75.1367 545.851 74.349 546.634 74.349 547.601Z" fill="#9871F5"/>
<path d="M62.0607 547.6C62.0607 548.566 62.8484 549.35 63.82 549.35C64.7917 549.35 65.5793 548.566 65.5793 547.6C65.5793 546.634 64.7917 545.851 63.82 545.851C62.8484 545.851 62.0607 546.634 62.0607 547.6Z" fill="#9871F5"/>
<path d="M49.7808 547.6C49.7808 548.566 50.5685 549.35 51.5401 549.35C52.5118 549.35 53.2994 548.566 53.2994 547.6C53.2994 546.634 52.5118 545.851 51.5401 545.851C50.5685 545.851 49.7808 546.634 49.7808 547.6Z" fill="#9871F5"/>
<path d="M37.4915 547.6C37.4915 548.566 38.2792 549.35 39.2508 549.35C40.2225 549.35 41.0101 548.566 41.0101 547.6C41.0101 546.634 40.2225 545.851 39.2508 545.851C38.2792 545.851 37.4915 546.634 37.4915 547.6Z" fill="#9871F5"/>
<path d="M25.2117 547.6C25.2117 548.566 25.9994 549.35 26.971 549.35C27.9427 549.35 28.7303 548.566 28.7303 547.6C28.7303 546.634 27.9427 545.851 26.971 545.851C25.9994 545.851 25.2117 546.634 25.2117 547.6Z" fill="#9871F5"/>
<path d="M12.9225 547.6C12.9225 548.566 13.7102 549.35 14.6818 549.35C15.6535 549.35 16.4412 548.566 16.4412 547.6C16.4412 546.634 15.6535 545.851 14.6818 545.851C13.7102 545.851 12.9225 546.634 12.9225 547.6Z" fill="#9871F5"/>
<path d="M0.642486 547.6C0.642486 548.566 1.43016 549.35 2.40181 549.35C3.37345 549.35 4.16113 548.566 4.16113 547.6C4.16113 546.634 3.37345 545.851 2.40181 545.851C1.43016 545.851 0.642486 546.634 0.642486 547.6Z" fill="#9871F5"/>
</svg>
