<svg width="132" height="56" viewBox="0 0 132 56" fill="none" xmlns="http://www.w3.org/2000/svg">
<rect width="132" height="56" rx="8" fill="#D30404"/>
<path d="M41.216 33V22.024H49.776V23.8H43.296V26.504H49.072V28.28H43.296V31.224H49.872V33H41.216ZM50.91 33L53.918 28.664L51.118 24.584H53.486L55.15 27.192H55.246L56.942 24.584H59.166L56.35 28.616L59.326 33H56.99L55.118 30.088H55.022L53.134 33H50.91ZM63.6221 33.192C62.7475 33.192 62.0168 33.0373 61.4301 32.728C60.8541 32.408 60.4221 31.9227 60.1341 31.272C59.8461 30.6213 59.7021 29.7947 59.7021 28.792C59.7021 27.7787 59.8461 26.952 60.1341 26.312C60.4328 25.6613 60.8701 25.1813 61.4461 24.872C62.0328 24.552 62.7581 24.392 63.6221 24.392C64.1875 24.392 64.6888 24.4613 65.1261 24.6C65.5635 24.7387 65.9368 24.952 66.2461 25.24C66.5661 25.5173 66.8061 25.864 66.9661 26.28C67.1261 26.696 67.2061 27.1813 67.2061 27.736H65.2221C65.2221 27.3413 65.1635 27.016 65.0461 26.76C64.9288 26.504 64.7475 26.312 64.5021 26.184C64.2675 26.0453 63.9635 25.976 63.5901 25.976C63.1528 25.976 62.7955 26.0773 62.5181 26.28C62.2408 26.4827 62.0328 26.7867 61.8941 27.192C61.7661 27.5867 61.7021 28.088 61.7021 28.696V28.904C61.7021 29.5013 61.7661 30.0027 61.8941 30.408C62.0328 30.8133 62.2461 31.1173 62.5341 31.32C62.8221 31.512 63.2008 31.608 63.6701 31.608C64.0328 31.608 64.3315 31.544 64.5661 31.416C64.8115 31.2773 64.9981 31.0747 65.1261 30.808C65.2541 30.5413 65.3181 30.2213 65.3181 29.848H67.2061C67.2061 30.3707 67.1261 30.84 66.9661 31.256C66.8061 31.672 66.5715 32.024 66.2621 32.312C65.9528 32.6 65.5741 32.8187 65.1261 32.968C64.6888 33.1173 64.1875 33.192 63.6221 33.192ZM68.8681 33V21.432H70.8201V33H68.8681ZM75.5714 33.192C74.7607 33.192 74.0994 32.9733 73.5874 32.536C73.086 32.088 72.8354 31.3307 72.8354 30.264V24.584H74.7874V29.912C74.7874 30.2107 74.8194 30.4613 74.8834 30.664C74.958 30.856 75.0594 31.016 75.1874 31.144C75.326 31.2613 75.4914 31.3467 75.6834 31.4C75.8754 31.4533 76.0887 31.48 76.3234 31.48C76.6754 31.48 76.99 31.3947 77.2674 31.224C77.5554 31.0533 77.7794 30.8187 77.9394 30.52C78.11 30.2107 78.1954 29.864 78.1954 29.48V24.584H80.1474V33H78.5314L78.3714 31.88H78.2594C78.0674 32.136 77.838 32.3653 77.5714 32.568C77.3154 32.76 77.0167 32.9093 76.6754 33.016C76.3447 33.1333 75.9767 33.192 75.5714 33.192ZM82.2275 23.288V21.432H84.1795V23.288H82.2275ZM82.2275 33V24.584H84.1795V33H82.2275ZM86.2588 33V24.584H87.8908L88.0508 25.912H88.1628C88.2694 25.6453 88.3974 25.4 88.5468 25.176C88.7068 24.9413 88.9094 24.7547 89.1548 24.616C89.4001 24.4667 89.6988 24.392 90.0508 24.392C90.2214 24.392 90.3761 24.408 90.5148 24.44C90.6641 24.472 90.7761 24.504 90.8508 24.536V26.376H90.2588C89.9281 26.376 89.6348 26.424 89.3788 26.52C89.1228 26.6053 88.9041 26.744 88.7228 26.936C88.5521 27.128 88.4241 27.368 88.3388 27.656C88.2534 27.944 88.2108 28.28 88.2108 28.664V33H86.2588Z" fill="white"/>
</svg>
