<svg width="250" height="56" viewBox="0 0 250 56" fill="none" xmlns="http://www.w3.org/2000/svg">
<rect width="250" height="56" rx="8" fill="#13C7EE"/>
<path d="M94.368 34V21.652H103.998V23.65H96.708V26.692H103.206V28.69H96.708V32.002H104.106V34H94.368ZM109.558 34.216C108.79 34.216 108.124 34.042 107.56 33.694C106.996 33.346 106.558 32.806 106.246 32.074C105.946 31.342 105.796 30.4 105.796 29.248C105.796 28.108 105.952 27.178 106.264 26.458C106.576 25.726 107.008 25.186 107.56 24.838C108.112 24.49 108.736 24.316 109.432 24.316C109.864 24.316 110.26 24.364 110.62 24.46C110.98 24.556 111.298 24.706 111.574 24.91C111.85 25.102 112.084 25.342 112.276 25.63H112.384V20.986H114.58V34H112.762L112.582 32.74H112.456C112.156 33.232 111.748 33.604 111.232 33.856C110.728 34.096 110.17 34.216 109.558 34.216ZM110.242 32.326C110.746 32.326 111.154 32.212 111.466 31.984C111.778 31.756 112.006 31.426 112.15 30.994C112.306 30.562 112.384 30.034 112.384 29.41V29.176C112.384 28.708 112.342 28.288 112.258 27.916C112.174 27.544 112.042 27.232 111.862 26.98C111.694 26.728 111.472 26.536 111.196 26.404C110.932 26.272 110.614 26.206 110.242 26.206C109.702 26.206 109.27 26.314 108.946 26.53C108.634 26.734 108.406 27.058 108.262 27.502C108.13 27.934 108.064 28.486 108.064 29.158V29.41C108.064 30.07 108.13 30.616 108.262 31.048C108.406 31.48 108.634 31.804 108.946 32.02C109.27 32.224 109.702 32.326 110.242 32.326ZM116.916 23.074V20.986H119.112V23.074H116.916ZM116.916 34V24.532H119.112V34H116.916ZM123.953 34.216C123.365 34.216 122.903 34.102 122.567 33.874C122.231 33.634 121.991 33.334 121.847 32.974C121.715 32.602 121.649 32.224 121.649 31.84V26.332H120.515V24.532H121.703L122.099 21.886H123.845V24.532H125.483V26.332H123.845V31.624C123.845 31.876 123.911 32.074 124.043 32.218C124.175 32.35 124.373 32.416 124.637 32.416H125.483V33.928C125.363 33.976 125.213 34.018 125.033 34.054C124.865 34.102 124.685 34.138 124.493 34.162C124.301 34.198 124.121 34.216 123.953 34.216ZM129.541 34.216C129.277 34.216 128.971 34.18 128.623 34.108C128.287 34.048 127.957 33.928 127.633 33.748C127.321 33.568 127.063 33.304 126.859 32.956C126.655 32.596 126.553 32.128 126.553 31.552C126.553 30.904 126.697 30.37 126.985 29.95C127.273 29.518 127.675 29.182 128.191 28.942C128.719 28.69 129.343 28.516 130.063 28.42C130.795 28.312 131.593 28.258 132.457 28.258V27.484C132.457 27.208 132.415 26.962 132.331 26.746C132.247 26.53 132.091 26.362 131.863 26.242C131.647 26.11 131.317 26.044 130.873 26.044C130.429 26.044 130.081 26.098 129.829 26.206C129.577 26.314 129.403 26.446 129.307 26.602C129.211 26.758 129.163 26.92 129.163 27.088V27.34H127.039C127.027 27.28 127.021 27.22 127.021 27.16C127.021 27.1 127.021 27.028 127.021 26.944C127.021 26.404 127.183 25.936 127.507 25.54C127.831 25.144 128.281 24.844 128.857 24.64C129.433 24.424 130.099 24.316 130.855 24.316C131.719 24.316 132.427 24.436 132.979 24.676C133.543 24.916 133.963 25.258 134.239 25.702C134.515 26.146 134.653 26.686 134.653 27.322V31.786C134.653 32.014 134.719 32.176 134.851 32.272C134.983 32.368 135.127 32.416 135.283 32.416H135.859V33.928C135.739 33.976 135.565 34.03 135.337 34.09C135.109 34.162 134.827 34.198 134.491 34.198C134.179 34.198 133.897 34.144 133.645 34.036C133.405 33.94 133.201 33.796 133.033 33.604C132.865 33.412 132.745 33.184 132.673 32.92H132.565C132.361 33.172 132.115 33.4 131.827 33.604C131.551 33.796 131.221 33.946 130.837 34.054C130.465 34.162 130.033 34.216 129.541 34.216ZM130.207 32.416C130.567 32.416 130.885 32.362 131.161 32.254C131.449 32.146 131.683 31.996 131.863 31.804C132.055 31.612 132.199 31.378 132.295 31.102C132.403 30.826 132.457 30.526 132.457 30.202V29.77C131.797 29.77 131.185 29.812 130.621 29.896C130.069 29.98 129.625 30.136 129.289 30.364C128.965 30.592 128.803 30.916 128.803 31.336C128.803 31.552 128.851 31.744 128.947 31.912C129.055 32.068 129.211 32.194 129.415 32.29C129.631 32.374 129.895 32.416 130.207 32.416ZM137.113 34V24.532H138.949L139.129 26.026H139.255C139.375 25.726 139.519 25.45 139.687 25.198C139.867 24.934 140.095 24.724 140.371 24.568C140.647 24.4 140.983 24.316 141.379 24.316C141.571 24.316 141.745 24.334 141.901 24.37C142.069 24.406 142.195 24.442 142.279 24.478V26.548H141.613C141.241 26.548 140.911 26.602 140.623 26.71C140.335 26.806 140.089 26.962 139.885 27.178C139.693 27.394 139.549 27.664 139.453 27.988C139.357 28.312 139.309 28.69 139.309 29.122V34H137.113Z" fill="white"/>
</svg>
