<svg width="210" height="49" viewBox="0 0 210 49" fill="none" xmlns="http://www.w3.org/2000/svg">
<rect width="210" height="49" rx="8" fill="#04D361"/>
<path d="M57.216 30V19.024H65.776V20.8H59.296V23.504H65.072V25.28H59.296V28.224H65.872V30H57.216ZM67.79 30V21.584H69.422L69.582 22.704H69.694C69.886 22.448 70.11 22.224 70.366 22.032C70.6327 21.8293 70.9313 21.6747 71.262 21.568C71.6033 21.4507 71.9767 21.392 72.382 21.392C72.9153 21.392 73.3847 21.488 73.79 21.68C74.206 21.872 74.5313 22.1813 74.766 22.608C75.0007 23.0347 75.118 23.6053 75.118 24.32V30H73.15V24.672C73.15 24.3733 73.1127 24.128 73.038 23.936C72.974 23.7333 72.8727 23.5733 72.734 23.456C72.606 23.328 72.446 23.2373 72.254 23.184C72.062 23.1307 71.8487 23.104 71.614 23.104C71.262 23.104 70.942 23.1893 70.654 23.36C70.3767 23.5307 70.1527 23.7653 69.982 24.064C69.822 24.3627 69.742 24.7093 69.742 25.104V30H67.79ZM79.3578 30.192C78.8351 30.192 78.4244 30.0907 78.1258 29.888C77.8271 29.6747 77.6138 29.408 77.4858 29.088C77.3684 28.7573 77.3098 28.4213 77.3098 28.08V23.184H76.3018V21.584H77.3578L77.7098 19.232H79.2618V21.584H80.7178V23.184H79.2618V27.888C79.2618 28.112 79.3204 28.288 79.4378 28.416C79.5551 28.5333 79.7311 28.592 79.9658 28.592H80.7178V29.936C80.6111 29.9787 80.4778 30.016 80.3177 30.048C80.1684 30.0907 80.0084 30.1227 79.8378 30.144C79.6671 30.176 79.5071 30.192 79.3578 30.192ZM82.165 30V21.584H83.797L83.957 22.912H84.069C84.1757 22.6453 84.3037 22.4 84.453 22.176C84.613 21.9413 84.8157 21.7547 85.061 21.616C85.3063 21.4667 85.605 21.392 85.957 21.392C86.1277 21.392 86.2823 21.408 86.421 21.44C86.5703 21.472 86.6823 21.504 86.757 21.536V23.376H86.165C85.8343 23.376 85.541 23.424 85.285 23.52C85.029 23.6053 84.8103 23.744 84.629 23.936C84.4583 24.128 84.3303 24.368 84.245 24.656C84.1597 24.944 84.117 25.28 84.117 25.664V30H82.165ZM89.9656 30.192C89.731 30.192 89.459 30.16 89.1496 30.096C88.851 30.0427 88.5576 29.936 88.2696 29.776C87.9923 29.616 87.763 29.3813 87.5816 29.072C87.4003 28.752 87.3096 28.336 87.3096 27.824C87.3096 27.248 87.4376 26.7733 87.6936 26.4C87.9496 26.016 88.307 25.7173 88.7656 25.504C89.235 25.28 89.7896 25.1253 90.4296 25.04C91.0803 24.944 91.7896 24.896 92.5576 24.896V24.208C92.5576 23.9627 92.5203 23.744 92.4456 23.552C92.371 23.36 92.2323 23.2107 92.0296 23.104C91.8376 22.9867 91.5443 22.928 91.1496 22.928C90.755 22.928 90.4456 22.976 90.2216 23.072C89.9976 23.168 89.843 23.2853 89.7576 23.424C89.6723 23.5627 89.6296 23.7067 89.6296 23.856V24.08H87.7416C87.731 24.0267 87.7256 23.9733 87.7256 23.92C87.7256 23.8667 87.7256 23.8027 87.7256 23.728C87.7256 23.248 87.8696 22.832 88.1576 22.48C88.4456 22.128 88.8456 21.8613 89.3576 21.68C89.8696 21.488 90.4616 21.392 91.1336 21.392C91.9016 21.392 92.531 21.4987 93.0216 21.712C93.523 21.9253 93.8963 22.2293 94.1416 22.624C94.387 23.0187 94.5096 23.4987 94.5096 24.064V28.032C94.5096 28.2347 94.5683 28.3787 94.6856 28.464C94.803 28.5493 94.931 28.592 95.0696 28.592H95.5816V29.936C95.475 29.9787 95.3203 30.0267 95.1176 30.08C94.915 30.144 94.6643 30.176 94.3656 30.176C94.0883 30.176 93.8376 30.128 93.6136 30.032C93.4003 29.9467 93.219 29.8187 93.0696 29.648C92.9203 29.4773 92.8136 29.2747 92.7496 29.04H92.6536C92.4723 29.264 92.2536 29.4667 91.9976 29.648C91.7523 29.8187 91.459 29.952 91.1176 30.048C90.787 30.144 90.403 30.192 89.9656 30.192ZM90.5576 28.592C90.8776 28.592 91.1603 28.544 91.4056 28.448C91.6616 28.352 91.8696 28.2187 92.0296 28.048C92.2003 27.8773 92.3283 27.6693 92.4136 27.424C92.5096 27.1787 92.5576 26.912 92.5576 26.624V26.24C91.971 26.24 91.427 26.2773 90.9256 26.352C90.435 26.4267 90.0403 26.5653 89.7416 26.768C89.4536 26.9707 89.3096 27.2587 89.3096 27.632C89.3096 27.824 89.3523 27.9947 89.4376 28.144C89.5336 28.2827 89.6723 28.3947 89.8536 28.48C90.0456 28.5547 90.2803 28.592 90.5576 28.592ZM96.6963 30V21.584H98.3283L98.4883 22.912H98.6003C98.7069 22.6453 98.8349 22.4 98.9843 22.176C99.1443 21.9413 99.3469 21.7547 99.5923 21.616C99.8376 21.4667 100.136 21.392 100.488 21.392C100.659 21.392 100.814 21.408 100.952 21.44C101.102 21.472 101.214 21.504 101.288 21.536V23.376H100.696C100.366 23.376 100.072 23.424 99.8163 23.52C99.5603 23.6053 99.3416 23.744 99.1603 23.936C98.9896 24.128 98.8616 24.368 98.7763 24.656C98.6909 24.944 98.6483 25.28 98.6483 25.664V30H96.6963ZM109 30.192C108.104 30.192 107.357 30.0373 106.76 29.728C106.162 29.408 105.714 28.9227 105.416 28.272C105.117 27.6213 104.968 26.7947 104.968 25.792C104.968 24.7787 105.117 23.952 105.416 23.312C105.714 22.6613 106.162 22.1813 106.76 21.872C107.357 21.552 108.104 21.392 109 21.392C109.81 21.392 110.488 21.5467 111.032 21.856C111.586 22.1547 112.002 22.6187 112.28 23.248C112.557 23.8773 112.696 24.6933 112.696 25.696V26.272H106.968C106.989 26.7947 107.069 27.2373 107.208 27.6C107.346 27.952 107.56 28.2187 107.848 28.4C108.146 28.5707 108.536 28.656 109.016 28.656C109.261 28.656 109.49 28.624 109.704 28.56C109.917 28.496 110.104 28.4 110.264 28.272C110.424 28.1333 110.546 27.9627 110.632 27.76C110.728 27.5573 110.776 27.3227 110.776 27.056H112.696C112.696 27.5893 112.6 28.0533 112.408 28.448C112.226 28.8427 111.965 29.168 111.624 29.424C111.293 29.68 110.904 29.872 110.456 30C110.008 30.128 109.522 30.192 109 30.192ZM107 24.896H110.664C110.664 24.544 110.621 24.2453 110.536 24C110.461 23.7547 110.349 23.552 110.2 23.392C110.061 23.232 109.89 23.12 109.688 23.056C109.485 22.9813 109.256 22.944 109 22.944C108.584 22.944 108.232 23.0133 107.944 23.152C107.666 23.2907 107.453 23.504 107.304 23.792C107.154 24.08 107.053 24.448 107 24.896ZM114.353 30V21.584H115.985L116.145 22.704H116.257C116.438 22.448 116.646 22.224 116.881 22.032C117.115 21.8293 117.382 21.6747 117.681 21.568C117.99 21.4507 118.326 21.392 118.689 21.392C119.179 21.392 119.617 21.4933 120.001 21.696C120.385 21.8987 120.683 22.2347 120.897 22.704H121.009C121.19 22.448 121.403 22.224 121.649 22.032C121.894 21.8293 122.177 21.6747 122.497 21.568C122.817 21.4507 123.163 21.392 123.537 21.392C124.038 21.392 124.481 21.4827 124.865 21.664C125.249 21.8453 125.553 22.144 125.777 22.56C126.001 22.976 126.113 23.5307 126.113 24.224V30H124.161V24.624C124.161 24.336 124.129 24.096 124.065 23.904C124.001 23.7013 123.91 23.5467 123.793 23.44C123.686 23.3227 123.547 23.2373 123.377 23.184C123.217 23.1307 123.041 23.104 122.849 23.104C122.539 23.104 122.262 23.1893 122.017 23.36C121.771 23.5307 121.574 23.7653 121.425 24.064C121.286 24.3627 121.217 24.7093 121.217 25.104V30H119.265V24.624C119.265 24.336 119.233 24.096 119.169 23.904C119.105 23.7013 119.014 23.5467 118.897 23.44C118.79 23.3227 118.651 23.2373 118.481 23.184C118.321 23.1307 118.145 23.104 117.953 23.104C117.643 23.104 117.361 23.1893 117.105 23.36C116.859 23.5307 116.662 23.7653 116.513 24.064C116.374 24.3627 116.305 24.7093 116.305 25.104V30H114.353ZM134.841 30.192C133.966 30.192 133.236 30.0373 132.649 29.728C132.073 29.408 131.641 28.9227 131.353 28.272C131.065 27.6213 130.921 26.7947 130.921 25.792C130.921 24.7787 131.065 23.952 131.353 23.312C131.652 22.6613 132.089 22.1813 132.665 21.872C133.252 21.552 133.977 21.392 134.841 21.392C135.406 21.392 135.908 21.4613 136.345 21.6C136.782 21.7387 137.156 21.952 137.465 22.24C137.785 22.5173 138.025 22.864 138.185 23.28C138.345 23.696 138.425 24.1813 138.425 24.736H136.441C136.441 24.3413 136.382 24.016 136.265 23.76C136.148 23.504 135.966 23.312 135.721 23.184C135.486 23.0453 135.182 22.976 134.809 22.976C134.372 22.976 134.014 23.0773 133.737 23.28C133.46 23.4827 133.252 23.7867 133.113 24.192C132.985 24.5867 132.921 25.088 132.921 25.696V25.904C132.921 26.5013 132.985 27.0027 133.113 27.408C133.252 27.8133 133.465 28.1173 133.753 28.32C134.041 28.512 134.42 28.608 134.889 28.608C135.252 28.608 135.55 28.544 135.785 28.416C136.03 28.2773 136.217 28.0747 136.345 27.808C136.473 27.5413 136.537 27.2213 136.537 26.848H138.425C138.425 27.3707 138.345 27.84 138.185 28.256C138.025 28.672 137.79 29.024 137.481 29.312C137.172 29.6 136.793 29.8187 136.345 29.968C135.908 30.1173 135.406 30.192 134.841 30.192ZM143.831 30.192C142.914 30.192 142.146 30.0373 141.527 29.728C140.908 29.408 140.444 28.9227 140.135 28.272C139.826 27.6213 139.671 26.7947 139.671 25.792C139.671 24.7787 139.826 23.952 140.135 23.312C140.444 22.6613 140.908 22.1813 141.527 21.872C142.146 21.552 142.914 21.392 143.831 21.392C144.759 21.392 145.527 21.552 146.135 21.872C146.754 22.1813 147.218 22.6613 147.527 23.312C147.836 23.952 147.991 24.7787 147.991 25.792C147.991 26.7947 147.836 27.6213 147.527 28.272C147.218 28.9227 146.754 29.408 146.135 29.728C145.527 30.0373 144.759 30.192 143.831 30.192ZM143.831 28.592C144.343 28.592 144.754 28.496 145.063 28.304C145.383 28.1013 145.612 27.8027 145.751 27.408C145.9 27.0027 145.975 26.5013 145.975 25.904V25.68C145.975 25.0827 145.9 24.5867 145.751 24.192C145.612 23.7867 145.383 23.488 145.063 23.296C144.754 23.0933 144.343 22.992 143.831 22.992C143.319 22.992 142.903 23.0933 142.583 23.296C142.274 23.488 142.044 23.7867 141.895 24.192C141.756 24.5867 141.687 25.0827 141.687 25.68V25.904C141.687 26.5013 141.756 27.0027 141.895 27.408C142.044 27.8027 142.274 28.1013 142.583 28.304C142.903 28.496 143.319 28.592 143.831 28.592ZM149.649 30V21.584H151.281L151.441 22.704H151.553C151.745 22.448 151.969 22.224 152.225 22.032C152.492 21.8293 152.791 21.6747 153.121 21.568C153.463 21.4507 153.836 21.392 154.241 21.392C154.775 21.392 155.244 21.488 155.649 21.68C156.065 21.872 156.391 22.1813 156.625 22.608C156.86 23.0347 156.977 23.6053 156.977 24.32V30H155.009V24.672C155.009 24.3733 154.972 24.128 154.897 23.936C154.833 23.7333 154.732 23.5733 154.593 23.456C154.465 23.328 154.305 23.2373 154.113 23.184C153.921 23.1307 153.708 23.104 153.473 23.104C153.121 23.104 152.801 23.1893 152.513 23.36C152.236 23.5307 152.012 23.7653 151.841 24.064C151.681 24.3627 151.601 24.7093 151.601 25.104V30H149.649ZM161.217 30.192C160.694 30.192 160.284 30.0907 159.985 29.888C159.686 29.6747 159.473 29.408 159.345 29.088C159.228 28.7573 159.169 28.4213 159.169 28.08V23.184H158.161V21.584H159.217L159.569 19.232H161.121V21.584H162.577V23.184H161.121V27.888C161.121 28.112 161.18 28.288 161.297 28.416C161.414 28.5333 161.59 28.592 161.825 28.592H162.577V29.936C162.47 29.9787 162.337 30.016 162.177 30.048C162.028 30.0907 161.868 30.1227 161.697 30.144C161.526 30.176 161.366 30.192 161.217 30.192ZM166.184 30.192C165.95 30.192 165.678 30.16 165.368 30.096C165.07 30.0427 164.776 29.936 164.488 29.776C164.211 29.616 163.982 29.3813 163.8 29.072C163.619 28.752 163.528 28.336 163.528 27.824C163.528 27.248 163.656 26.7733 163.912 26.4C164.168 26.016 164.526 25.7173 164.984 25.504C165.454 25.28 166.008 25.1253 166.648 25.04C167.299 24.944 168.008 24.896 168.776 24.896V24.208C168.776 23.9627 168.739 23.744 168.664 23.552C168.59 23.36 168.451 23.2107 168.248 23.104C168.056 22.9867 167.763 22.928 167.368 22.928C166.974 22.928 166.664 22.976 166.44 23.072C166.216 23.168 166.062 23.2853 165.976 23.424C165.891 23.5627 165.848 23.7067 165.848 23.856V24.08H163.96C163.95 24.0267 163.944 23.9733 163.944 23.92C163.944 23.8667 163.944 23.8027 163.944 23.728C163.944 23.248 164.088 22.832 164.376 22.48C164.664 22.128 165.064 21.8613 165.576 21.68C166.088 21.488 166.68 21.392 167.352 21.392C168.12 21.392 168.75 21.4987 169.24 21.712C169.742 21.9253 170.115 22.2293 170.36 22.624C170.606 23.0187 170.728 23.4987 170.728 24.064V28.032C170.728 28.2347 170.787 28.3787 170.904 28.464C171.022 28.5493 171.15 28.592 171.288 28.592H171.8V29.936C171.694 29.9787 171.539 30.0267 171.336 30.08C171.134 30.144 170.883 30.176 170.584 30.176C170.307 30.176 170.056 30.128 169.832 30.032C169.619 29.9467 169.438 29.8187 169.288 29.648C169.139 29.4773 169.032 29.2747 168.968 29.04H168.872C168.691 29.264 168.472 29.4667 168.216 29.648C167.971 29.8187 167.678 29.952 167.336 30.048C167.006 30.144 166.622 30.192 166.184 30.192ZM166.776 28.592C167.096 28.592 167.379 28.544 167.624 28.448C167.88 28.352 168.088 28.2187 168.248 28.048C168.419 27.8773 168.547 27.6693 168.632 27.424C168.728 27.1787 168.776 26.912 168.776 26.624V26.24C168.19 26.24 167.646 26.2773 167.144 26.352C166.654 26.4267 166.259 26.5653 165.96 26.768C165.672 26.9707 165.528 27.2587 165.528 27.632C165.528 27.824 165.571 27.9947 165.656 28.144C165.752 28.2827 165.891 28.3947 166.072 28.48C166.264 28.5547 166.499 28.592 166.776 28.592ZM175.139 30.192C174.616 30.192 174.206 30.0907 173.907 29.888C173.608 29.6747 173.395 29.408 173.267 29.088C173.15 28.7573 173.091 28.4213 173.091 28.08V23.184H172.083V21.584H173.139L173.491 19.232H175.043V21.584H176.499V23.184H175.043V27.888C175.043 28.112 175.102 28.288 175.219 28.416C175.336 28.5333 175.512 28.592 175.747 28.592H176.499V29.936C176.392 29.9787 176.259 30.016 176.099 30.048C175.95 30.0907 175.79 30.1227 175.619 30.144C175.448 30.176 175.288 30.192 175.139 30.192ZM181.69 30.192C180.773 30.192 180.005 30.0373 179.386 29.728C178.768 29.408 178.304 28.9227 177.994 28.272C177.685 27.6213 177.53 26.7947 177.53 25.792C177.53 24.7787 177.685 23.952 177.994 23.312C178.304 22.6613 178.768 22.1813 179.386 21.872C180.005 21.552 180.773 21.392 181.69 21.392C182.618 21.392 183.386 21.552 183.994 21.872C184.613 22.1813 185.077 22.6613 185.386 23.312C185.696 23.952 185.85 24.7787 185.85 25.792C185.85 26.7947 185.696 27.6213 185.386 28.272C185.077 28.9227 184.613 29.408 183.994 29.728C183.386 30.0373 182.618 30.192 181.69 30.192ZM181.69 28.592C182.202 28.592 182.613 28.496 182.922 28.304C183.242 28.1013 183.472 27.8027 183.61 27.408C183.76 27.0027 183.834 26.5013 183.834 25.904V25.68C183.834 25.0827 183.76 24.5867 183.61 24.192C183.472 23.7867 183.242 23.488 182.922 23.296C182.613 23.0933 182.202 22.992 181.69 22.992C181.178 22.992 180.762 23.0933 180.442 23.296C180.133 23.488 179.904 23.7867 179.754 24.192C179.616 24.5867 179.546 25.0827 179.546 25.68V25.904C179.546 26.5013 179.616 27.0027 179.754 27.408C179.904 27.8027 180.133 28.1013 180.442 28.304C180.762 28.496 181.178 28.592 181.69 28.592Z" fill="white"/>
<g clip-path="url(#clip0_7_1706)">
<path d="M30.0025 15H29.9975C24.4838 15 20 19.485 20 25C20 27.1875 20.705 29.215 21.9037 30.8612L20.6575 34.5763L24.5013 33.3475C26.0825 34.395 27.9688 35 30.0025 35C35.5162 35 40 30.5138 40 25C40 19.4863 35.5162 15 30.0025 15Z" fill="#4CAF50"/>
<path d="M35.8211 29.1212C35.5798 29.8025 34.6223 30.3675 33.8586 30.5325C33.3361 30.6437 32.6536 30.7325 30.3561 29.78C27.4173 28.5625 25.5248 25.5762 25.3773 25.3825C25.2361 25.1887 24.1898 23.8012 24.1898 22.3662C24.1898 20.9312 24.9186 20.2325 25.2123 19.9325C25.4536 19.6862 25.8523 19.5737 26.2348 19.5737C26.3586 19.5737 26.4698 19.58 26.5698 19.585C26.8636 19.5975 27.0111 19.615 27.2048 20.0787C27.4461 20.66 28.0336 22.095 28.1036 22.2425C28.1748 22.39 28.2461 22.59 28.1461 22.7837C28.0523 22.9837 27.9698 23.0725 27.8223 23.2425C27.6748 23.4125 27.5348 23.5425 27.3873 23.725C27.2523 23.8837 27.0998 24.0537 27.2698 24.3475C27.4398 24.635 28.0273 25.5937 28.8923 26.3637C30.0086 27.3575 30.9136 27.675 31.2373 27.81C31.4786 27.91 31.7661 27.8862 31.9423 27.6987C32.1661 27.4575 32.4423 27.0575 32.7236 26.6637C32.9236 26.3812 33.1761 26.3462 33.4411 26.4462C33.7111 26.54 35.1398 27.2462 35.4336 27.3925C35.7273 27.54 35.9211 27.61 35.9923 27.7337C36.0623 27.8575 36.0623 28.4387 35.8211 29.1212Z" fill="#FAFAFA"/>
</g>
<defs>
<clipPath id="clip0_7_1706">
<rect width="20" height="20" fill="white" transform="translate(20 15)"/>
</clipPath>
</defs>
</svg>
