<svg width="127" height="40" viewBox="0 0 127 40" fill="none" xmlns="http://www.w3.org/2000/svg">
<rect width="127" height="40" rx="8" fill="#04D361"/>
<path d="M46.508 17.98V20.08H49.328V21.412H46.508V23.632H49.688V25H44.828V16.612H49.688V17.98H46.508ZM54.8987 18.256C55.6907 18.256 56.3307 18.508 56.8187 19.012C57.3067 19.508 57.5507 20.204 57.5507 21.1V25H55.8707V21.328C55.8707 20.8 55.7387 20.396 55.4747 20.116C55.2107 19.828 54.8507 19.684 54.3947 19.684C53.9307 19.684 53.5627 19.828 53.2907 20.116C53.0267 20.396 52.8947 20.8 52.8947 21.328V25H51.2147V18.352H52.8947V19.18C53.1187 18.892 53.4027 18.668 53.7467 18.508C54.0987 18.34 54.4827 18.256 54.8987 18.256ZM61.1043 19.732V22.948C61.1043 23.172 61.1563 23.336 61.2603 23.44C61.3723 23.536 61.5563 23.584 61.8123 23.584H62.5923V25H61.5363C60.1203 25 59.4123 24.312 59.4123 22.936V19.732H58.6203V18.352H59.4123V16.708H61.1043V18.352H62.5923V19.732H61.1043ZM65.4807 19.384C65.6967 19.032 65.9767 18.756 66.3207 18.556C66.6727 18.356 67.0727 18.256 67.5207 18.256V20.02H67.0767C66.5487 20.02 66.1487 20.144 65.8767 20.392C65.6127 20.64 65.4807 21.072 65.4807 21.688V25H63.8007V18.352H65.4807V19.384ZM68.2202 21.652C68.2202 20.98 68.3522 20.384 68.6162 19.864C68.8882 19.344 69.2522 18.944 69.7082 18.664C70.1722 18.384 70.6882 18.244 71.2562 18.244C71.7522 18.244 72.1842 18.344 72.5522 18.544C72.9282 18.744 73.2282 18.996 73.4522 19.3V18.352H75.1442V25H73.4522V24.028C73.2362 24.34 72.9362 24.6 72.5522 24.808C72.1762 25.008 71.7402 25.108 71.2442 25.108C70.6842 25.108 70.1722 24.964 69.7082 24.676C69.2522 24.388 68.8882 23.984 68.6162 23.464C68.3522 22.936 68.2202 22.332 68.2202 21.652ZM73.4522 21.676C73.4522 21.268 73.3722 20.92 73.2122 20.632C73.0522 20.336 72.8362 20.112 72.5642 19.96C72.2922 19.8 72.0002 19.72 71.6882 19.72C71.3762 19.72 71.0882 19.796 70.8242 19.948C70.5602 20.1 70.3442 20.324 70.1762 20.62C70.0162 20.908 69.9362 21.252 69.9362 21.652C69.9362 22.052 70.0162 22.404 70.1762 22.708C70.3442 23.004 70.5602 23.232 70.8242 23.392C71.0962 23.552 71.3842 23.632 71.6882 23.632C72.0002 23.632 72.2922 23.556 72.5642 23.404C72.8362 23.244 73.0522 23.02 73.2122 22.732C73.3722 22.436 73.4522 22.084 73.4522 21.676ZM78.465 19.384C78.681 19.032 78.961 18.756 79.305 18.556C79.657 18.356 80.057 18.256 80.505 18.256V20.02H80.061C79.533 20.02 79.133 20.144 78.861 20.392C78.597 20.64 78.465 21.072 78.465 21.688V25H76.785V18.352H78.465V19.384Z" fill="white"/>
</svg>
