<svg width="56" height="46" viewBox="0 0 56 46" fill="none" xmlns="http://www.w3.org/2000/svg">
<path d="M2.016 26.112H4.944V27H0.924V18.636H2.016V26.112ZM8.97169 27.108C8.35569 27.108 7.79569 26.968 7.29169 26.688C6.79569 26.408 6.40369 26.012 6.11569 25.5C5.83569 24.98 5.69569 24.38 5.69569 23.7C5.69569 23.028 5.83969 22.436 6.12769 21.924C6.42369 21.404 6.82369 21.008 7.32769 20.736C7.83169 20.456 8.39569 20.316 9.01969 20.316C9.64369 20.316 10.2077 20.456 10.7117 20.736C11.2157 21.008 11.6117 21.4 11.8997 21.912C12.1957 22.424 12.3437 23.02 12.3437 23.7C12.3437 24.38 12.1917 24.98 11.8877 25.5C11.5917 26.012 11.1877 26.408 10.6757 26.688C10.1637 26.968 9.59569 27.108 8.97169 27.108ZM8.97169 26.148C9.36369 26.148 9.73169 26.056 10.0757 25.872C10.4197 25.688 10.6957 25.412 10.9037 25.044C11.1197 24.676 11.2277 24.228 11.2277 23.7C11.2277 23.172 11.1237 22.724 10.9157 22.356C10.7077 21.988 10.4357 21.716 10.0997 21.54C9.76369 21.356 9.39969 21.264 9.00769 21.264C8.60769 21.264 8.23969 21.356 7.90369 21.54C7.57569 21.716 7.31169 21.988 7.11169 22.356C6.91169 22.724 6.81169 23.172 6.81169 23.7C6.81169 24.236 6.90769 24.688 7.09969 25.056C7.29969 25.424 7.56369 25.7 7.89169 25.884C8.21969 26.06 8.57969 26.148 8.97169 26.148ZM16.4915 20.316C17.0595 20.316 17.5555 20.44 17.9795 20.688C18.4115 20.936 18.7315 21.248 18.9395 21.624V20.424H20.0435V27.144C20.0435 27.744 19.9155 28.276 19.6595 28.74C19.4035 29.212 19.0355 29.58 18.5555 29.844C18.0835 30.108 17.5315 30.24 16.8995 30.24C16.0355 30.24 15.3155 30.036 14.7395 29.628C14.1635 29.22 13.8235 28.664 13.7195 27.96H14.7995C14.9195 28.36 15.1675 28.68 15.5435 28.92C15.9195 29.168 16.3715 29.292 16.8995 29.292C17.4995 29.292 17.9875 29.104 18.3635 28.728C18.7475 28.352 18.9395 27.824 18.9395 27.144V25.764C18.7235 26.148 18.4035 26.468 17.9795 26.724C17.5555 26.98 17.0595 27.108 16.4915 27.108C15.9075 27.108 15.3755 26.964 14.8955 26.676C14.4235 26.388 14.0515 25.984 13.7795 25.464C13.5075 24.944 13.3715 24.352 13.3715 23.688C13.3715 23.016 13.5075 22.428 13.7795 21.924C14.0515 21.412 14.4235 21.016 14.8955 20.736C15.3755 20.456 15.9075 20.316 16.4915 20.316ZM18.9395 23.7C18.9395 23.204 18.8395 22.772 18.6395 22.404C18.4395 22.036 18.1675 21.756 17.8235 21.564C17.4875 21.364 17.1155 21.264 16.7075 21.264C16.2995 21.264 15.9275 21.36 15.5915 21.552C15.2555 21.744 14.9875 22.024 14.7875 22.392C14.5875 22.76 14.4875 23.192 14.4875 23.688C14.4875 24.192 14.5875 24.632 14.7875 25.008C14.9875 25.376 15.2555 25.66 15.5915 25.86C15.9275 26.052 16.2995 26.148 16.7075 26.148C17.1155 26.148 17.4875 26.052 17.8235 25.86C18.1675 25.66 18.4395 25.376 18.6395 25.008C18.8395 24.632 18.9395 24.196 18.9395 23.7ZM22.4528 19.356C22.2448 19.356 22.0688 19.284 21.9248 19.14C21.7808 18.996 21.7088 18.82 21.7088 18.612C21.7088 18.404 21.7808 18.228 21.9248 18.084C22.0688 17.94 22.2448 17.868 22.4528 17.868C22.6528 17.868 22.8208 17.94 22.9568 18.084C23.1008 18.228 23.1728 18.404 23.1728 18.612C23.1728 18.82 23.1008 18.996 22.9568 19.14C22.8208 19.284 22.6528 19.356 22.4528 19.356ZM22.9808 20.424V27H21.8888V20.424H22.9808ZM28.046 20.304C28.846 20.304 29.494 20.548 29.99 21.036C30.486 21.516 30.734 22.212 30.734 23.124V27H29.654V23.28C29.654 22.624 29.49 22.124 29.162 21.78C28.834 21.428 28.386 21.252 27.818 21.252C27.242 21.252 26.782 21.432 26.438 21.792C26.102 22.152 25.934 22.676 25.934 23.364V27H24.842V20.424H25.934V21.36C26.15 21.024 26.442 20.764 26.81 20.58C27.186 20.396 27.598 20.304 28.046 20.304Z" fill="white"/>
<line x1="38" y1="24" x2="50" y2="24" stroke="white"/>
<line y1="-0.5" x2="6.97814" y2="-0.5" transform="matrix(0.764291 0.644871 -0.5547 0.83205 44.6666 20)" stroke="white"/>
<line y1="-0.5" x2="6.0208" y2="-0.5" transform="matrix(0.664364 -0.747409 0.664364 0.747409 46 29)" stroke="white"/>
<line x1="51" y1="17.6666" x2="56" y2="17.6666" stroke="white"/>
<line x1="55.5" y1="17" x2="55.5" y2="31" stroke="white"/>
<line x1="51" y1="30.5" x2="56" y2="30.5" stroke="white"/>
</svg>
