<svg width="250" height="56" viewBox="0 0 250 56" fill="none" xmlns="http://www.w3.org/2000/svg">
<rect width="250" height="56" rx="8" fill="#D30404"/>
<path d="M78.216 33V22.024H80.2L84.888 28.504C84.9413 28.568 85.0053 28.6587 85.08 28.776C85.1547 28.8827 85.224 28.9893 85.288 29.096C85.352 29.2027 85.3947 29.288 85.416 29.352H85.496C85.496 29.2027 85.496 29.0587 85.496 28.92C85.496 28.7813 85.496 28.6427 85.496 28.504V22.024H87.496V33H85.528L80.824 26.472C80.7387 26.344 80.6373 26.1893 80.52 26.008C80.4133 25.816 80.3387 25.6827 80.296 25.608H80.216C80.216 25.7467 80.216 25.8907 80.216 26.04C80.216 26.1787 80.216 26.3227 80.216 26.472V33H78.216ZM91.9188 33.192C91.6841 33.192 91.4121 33.16 91.1028 33.096C90.8041 33.0427 90.5108 32.936 90.2228 32.776C89.9454 32.616 89.7161 32.3813 89.5348 32.072C89.3534 31.752 89.2628 31.336 89.2628 30.824C89.2628 30.248 89.3908 29.7733 89.6468 29.4C89.9028 29.016 90.2601 28.7173 90.7188 28.504C91.1881 28.28 91.7428 28.1253 92.3828 28.04C93.0334 27.944 93.7428 27.896 94.5108 27.896V27.208C94.5108 26.9627 94.4734 26.744 94.3988 26.552C94.3241 26.36 94.1854 26.2107 93.9828 26.104C93.7908 25.9867 93.4974 25.928 93.1028 25.928C92.7081 25.928 92.3988 25.976 92.1748 26.072C91.9508 26.168 91.7961 26.2853 91.7108 26.424C91.6254 26.5627 91.5828 26.7067 91.5828 26.856V27.08H89.6948C89.6841 27.0267 89.6788 26.9733 89.6788 26.92C89.6788 26.8667 89.6788 26.8027 89.6788 26.728C89.6788 26.248 89.8228 25.832 90.1108 25.48C90.3988 25.128 90.7988 24.8613 91.3108 24.68C91.8228 24.488 92.4148 24.392 93.0868 24.392C93.8548 24.392 94.4841 24.4987 94.9748 24.712C95.4761 24.9253 95.8494 25.2293 96.0948 25.624C96.3401 26.0187 96.4628 26.4987 96.4628 27.064V31.032C96.4628 31.2347 96.5214 31.3787 96.6388 31.464C96.7561 31.5493 96.8841 31.592 97.0228 31.592H97.5347V32.936C97.4281 32.9787 97.2734 33.0267 97.0708 33.08C96.8681 33.144 96.6174 33.176 96.3188 33.176C96.0414 33.176 95.7908 33.128 95.5668 33.032C95.3534 32.9467 95.1721 32.8187 95.0228 32.648C94.8734 32.4773 94.7668 32.2747 94.7028 32.04H94.6068C94.4254 32.264 94.2068 32.4667 93.9508 32.648C93.7054 32.8187 93.4121 32.952 93.0708 33.048C92.7401 33.144 92.3561 33.192 91.9188 33.192ZM92.5108 31.592C92.8308 31.592 93.1134 31.544 93.3588 31.448C93.6148 31.352 93.8228 31.2187 93.9828 31.048C94.1534 30.8773 94.2814 30.6693 94.3668 30.424C94.4628 30.1787 94.5108 29.912 94.5108 29.624V29.24C93.9241 29.24 93.3801 29.2773 92.8788 29.352C92.3881 29.4267 91.9934 29.5653 91.6948 29.768C91.4068 29.9707 91.2628 30.2587 91.2628 30.632C91.2628 30.824 91.3054 30.9947 91.3908 31.144C91.4868 31.2827 91.6254 31.3947 91.8068 31.48C91.9988 31.5547 92.2334 31.592 92.5108 31.592ZM90.4148 23.304C90.4148 22.9627 90.4628 22.6533 90.5588 22.376C90.6654 22.088 90.8308 21.8587 91.0548 21.688C91.2788 21.5173 91.5668 21.432 91.9188 21.432C92.1961 21.432 92.4521 21.48 92.6868 21.576C92.9321 21.6613 93.1721 21.752 93.4068 21.848C93.6414 21.944 93.8814 21.992 94.1268 21.992C94.2761 21.992 94.3934 21.9547 94.4788 21.88C94.5748 21.7947 94.6334 21.6453 94.6548 21.432H95.7428C95.7428 21.7627 95.6894 22.072 95.5828 22.36C95.4868 22.6373 95.3268 22.8667 95.1028 23.048C94.8894 23.2187 94.6014 23.304 94.2388 23.304C93.9721 23.304 93.7161 23.256 93.4708 23.16C93.2254 23.064 92.9854 22.968 92.7508 22.872C92.5268 22.776 92.2921 22.728 92.0468 22.728C91.9081 22.728 91.7908 22.7707 91.6948 22.856C91.5988 22.9413 91.5401 23.0907 91.5188 23.304H90.4148ZM102.393 33.192C101.476 33.192 100.708 33.0373 100.089 32.728C99.4707 32.408 99.0067 31.9227 98.6974 31.272C98.388 30.6213 98.2334 29.7947 98.2334 28.792C98.2334 27.7787 98.388 26.952 98.6974 26.312C99.0067 25.6613 99.4707 25.1813 100.089 24.872C100.708 24.552 101.476 24.392 102.393 24.392C103.321 24.392 104.089 24.552 104.697 24.872C105.316 25.1813 105.78 25.6613 106.089 26.312C106.399 26.952 106.553 27.7787 106.553 28.792C106.553 29.7947 106.399 30.6213 106.089 31.272C105.78 31.9227 105.316 32.408 104.697 32.728C104.089 33.0373 103.321 33.192 102.393 33.192ZM102.393 31.592C102.905 31.592 103.316 31.496 103.625 31.304C103.945 31.1013 104.175 30.8027 104.313 30.408C104.463 30.0027 104.537 29.5013 104.537 28.904V28.68C104.537 28.0827 104.463 27.5867 104.313 27.192C104.175 26.7867 103.945 26.488 103.625 26.296C103.316 26.0933 102.905 25.992 102.393 25.992C101.881 25.992 101.465 26.0933 101.145 26.296C100.836 26.488 100.607 26.7867 100.457 27.192C100.319 27.5867 100.249 28.0827 100.249 28.68V28.904C100.249 29.5013 100.319 30.0027 100.457 30.408C100.607 30.8027 100.836 31.1013 101.145 31.304C101.465 31.496 101.881 31.592 102.393 31.592ZM113.575 33.192C113.34 33.192 113.068 33.16 112.759 33.096C112.46 33.0427 112.167 32.936 111.879 32.776C111.602 32.616 111.372 32.3813 111.191 32.072C111.01 31.752 110.919 31.336 110.919 30.824C110.919 30.248 111.047 29.7733 111.303 29.4C111.559 29.016 111.916 28.7173 112.375 28.504C112.844 28.28 113.399 28.1253 114.039 28.04C114.69 27.944 115.399 27.896 116.167 27.896V27.208C116.167 26.9627 116.13 26.744 116.055 26.552C115.98 26.36 115.842 26.2107 115.639 26.104C115.447 25.9867 115.154 25.928 114.759 25.928C114.364 25.928 114.055 25.976 113.831 26.072C113.607 26.168 113.452 26.2853 113.367 26.424C113.282 26.5627 113.239 26.7067 113.239 26.856V27.08H111.351C111.34 27.0267 111.335 26.9733 111.335 26.92C111.335 26.8667 111.335 26.8027 111.335 26.728C111.335 26.248 111.479 25.832 111.767 25.48C112.055 25.128 112.455 24.8613 112.967 24.68C113.479 24.488 114.071 24.392 114.743 24.392C115.511 24.392 116.14 24.4987 116.631 24.712C117.132 24.9253 117.506 25.2293 117.751 25.624C117.996 26.0187 118.119 26.4987 118.119 27.064V31.032C118.119 31.2347 118.178 31.3787 118.295 31.464C118.412 31.5493 118.54 31.592 118.679 31.592H119.191V32.936C119.084 32.9787 118.93 33.0267 118.727 33.08C118.524 33.144 118.274 33.176 117.975 33.176C117.698 33.176 117.447 33.128 117.223 33.032C117.01 32.9467 116.828 32.8187 116.679 32.648C116.53 32.4773 116.423 32.2747 116.359 32.04H116.263C116.082 32.264 115.863 32.4667 115.607 32.648C115.362 32.8187 115.068 32.952 114.727 33.048C114.396 33.144 114.012 33.192 113.575 33.192ZM114.167 31.592C114.487 31.592 114.77 31.544 115.015 31.448C115.271 31.352 115.479 31.2187 115.639 31.048C115.81 30.8773 115.938 30.6693 116.023 30.424C116.119 30.1787 116.167 29.912 116.167 29.624V29.24C115.58 29.24 115.036 29.2773 114.535 29.352C114.044 29.4267 113.65 29.5653 113.351 29.768C113.063 29.9707 112.919 30.2587 112.919 30.632C112.919 30.824 112.962 30.9947 113.047 31.144C113.143 31.2827 113.282 31.3947 113.463 31.48C113.655 31.5547 113.89 31.592 114.167 31.592ZM123.234 33.192C122.551 33.192 121.959 33.0373 121.458 32.728C120.956 32.4187 120.567 31.9387 120.29 31.288C120.023 30.6373 119.89 29.8 119.89 28.776C119.89 27.7627 120.028 26.936 120.306 26.296C120.583 25.6453 120.967 25.1653 121.458 24.856C121.948 24.5467 122.503 24.392 123.122 24.392C123.506 24.392 123.858 24.4347 124.178 24.52C124.498 24.6053 124.78 24.7387 125.026 24.92C125.271 25.0907 125.479 25.304 125.65 25.56H125.746V21.432H127.698V33H126.082L125.922 31.88H125.81C125.543 32.3173 125.18 32.648 124.722 32.872C124.274 33.0853 123.778 33.192 123.234 33.192ZM123.842 31.512C124.29 31.512 124.652 31.4107 124.93 31.208C125.207 31.0053 125.41 30.712 125.538 30.328C125.676 29.944 125.746 29.4747 125.746 28.92V28.712C125.746 28.296 125.708 27.9227 125.634 27.592C125.559 27.2613 125.442 26.984 125.282 26.76C125.132 26.536 124.935 26.3653 124.69 26.248C124.455 26.1307 124.172 26.072 123.842 26.072C123.362 26.072 122.978 26.168 122.69 26.36C122.412 26.5413 122.21 26.8293 122.082 27.224C121.964 27.608 121.906 28.0987 121.906 28.696V28.92C121.906 29.5067 121.964 29.992 122.082 30.376C122.21 30.76 122.412 31.048 122.69 31.24C122.978 31.4213 123.362 31.512 123.842 31.512ZM133.518 33.192C132.601 33.192 131.833 33.0373 131.214 32.728C130.596 32.408 130.132 31.9227 129.822 31.272C129.513 30.6213 129.358 29.7947 129.358 28.792C129.358 27.7787 129.513 26.952 129.822 26.312C130.132 25.6613 130.596 25.1813 131.214 24.872C131.833 24.552 132.601 24.392 133.518 24.392C134.446 24.392 135.214 24.552 135.822 24.872C136.441 25.1813 136.905 25.6613 137.214 26.312C137.524 26.952 137.678 27.7787 137.678 28.792C137.678 29.7947 137.524 30.6213 137.214 31.272C136.905 31.9227 136.441 32.408 135.822 32.728C135.214 33.0373 134.446 33.192 133.518 33.192ZM133.518 31.592C134.03 31.592 134.441 31.496 134.75 31.304C135.07 31.1013 135.3 30.8027 135.438 30.408C135.588 30.0027 135.662 29.5013 135.662 28.904V28.68C135.662 28.0827 135.588 27.5867 135.438 27.192C135.3 26.7867 135.07 26.488 134.75 26.296C134.441 26.0933 134.03 25.992 133.518 25.992C133.006 25.992 132.59 26.0933 132.27 26.296C131.961 26.488 131.732 26.7867 131.582 27.192C131.444 27.5867 131.374 28.0827 131.374 28.68V28.904C131.374 29.5013 131.444 30.0027 131.582 30.408C131.732 30.8027 131.961 31.1013 132.27 31.304C132.59 31.496 133.006 31.592 133.518 31.592ZM141.561 33.192C141.038 33.192 140.628 33.0907 140.329 32.888C140.03 32.6747 139.817 32.408 139.689 32.088C139.572 31.7573 139.513 31.4213 139.513 31.08V26.184H138.505V24.584H139.561L139.913 22.232H141.465V24.584H142.921V26.184H141.465V30.888C141.465 31.112 141.524 31.288 141.641 31.416C141.758 31.5333 141.934 31.592 142.169 31.592H142.921V32.936C142.814 32.9787 142.681 33.016 142.521 33.048C142.372 33.0907 142.212 33.1227 142.041 33.144C141.87 33.176 141.71 33.192 141.561 33.192ZM146.528 33.192C146.293 33.192 146.021 33.16 145.712 33.096C145.413 33.0427 145.12 32.936 144.832 32.776C144.555 32.616 144.325 32.3813 144.144 32.072C143.963 31.752 143.872 31.336 143.872 30.824C143.872 30.248 144 29.7733 144.256 29.4C144.512 29.016 144.869 28.7173 145.328 28.504C145.797 28.28 146.352 28.1253 146.992 28.04C147.643 27.944 148.352 27.896 149.12 27.896V27.208C149.12 26.9627 149.083 26.744 149.008 26.552C148.933 26.36 148.795 26.2107 148.592 26.104C148.4 25.9867 148.107 25.928 147.712 25.928C147.317 25.928 147.008 25.976 146.784 26.072C146.56 26.168 146.405 26.2853 146.32 26.424C146.235 26.5627 146.192 26.7067 146.192 26.856V27.08H144.304C144.293 27.0267 144.288 26.9733 144.288 26.92C144.288 26.8667 144.288 26.8027 144.288 26.728C144.288 26.248 144.432 25.832 144.72 25.48C145.008 25.128 145.408 24.8613 145.92 24.68C146.432 24.488 147.024 24.392 147.696 24.392C148.464 24.392 149.093 24.4987 149.584 24.712C150.085 24.9253 150.459 25.2293 150.704 25.624C150.949 26.0187 151.072 26.4987 151.072 27.064V31.032C151.072 31.2347 151.131 31.3787 151.248 31.464C151.365 31.5493 151.493 31.592 151.632 31.592H152.144V32.936C152.037 32.9787 151.883 33.0267 151.68 33.08C151.477 33.144 151.227 33.176 150.928 33.176C150.651 33.176 150.4 33.128 150.176 33.032C149.963 32.9467 149.781 32.8187 149.632 32.648C149.483 32.4773 149.376 32.2747 149.312 32.04H149.216C149.035 32.264 148.816 32.4667 148.56 32.648C148.315 32.8187 148.021 32.952 147.68 33.048C147.349 33.144 146.965 33.192 146.528 33.192ZM147.12 31.592C147.44 31.592 147.723 31.544 147.968 31.448C148.224 31.352 148.432 31.2187 148.592 31.048C148.763 30.8773 148.891 30.6693 148.976 30.424C149.072 30.1787 149.12 29.912 149.12 29.624V29.24C148.533 29.24 147.989 29.2773 147.488 29.352C146.997 29.4267 146.603 29.5653 146.304 29.768C146.016 29.9707 145.872 30.2587 145.872 30.632C145.872 30.824 145.915 30.9947 146 31.144C146.096 31.2827 146.235 31.3947 146.416 31.48C146.608 31.5547 146.843 31.592 147.12 31.592ZM156.187 33.192C155.504 33.192 154.912 33.0373 154.411 32.728C153.909 32.4187 153.52 31.9387 153.243 31.288C152.976 30.6373 152.843 29.8 152.843 28.776C152.843 27.7627 152.981 26.936 153.259 26.296C153.536 25.6453 153.92 25.1653 154.411 24.856C154.901 24.5467 155.456 24.392 156.075 24.392C156.459 24.392 156.811 24.4347 157.131 24.52C157.451 24.6053 157.733 24.7387 157.979 24.92C158.224 25.0907 158.432 25.304 158.603 25.56H158.699V21.432H160.651V33H159.035L158.875 31.88H158.763C158.496 32.3173 158.133 32.648 157.675 32.872C157.227 33.0853 156.731 33.192 156.187 33.192ZM156.795 31.512C157.243 31.512 157.605 31.4107 157.883 31.208C158.16 31.0053 158.363 30.712 158.491 30.328C158.629 29.944 158.699 29.4747 158.699 28.92V28.712C158.699 28.296 158.661 27.9227 158.587 27.592C158.512 27.2613 158.395 26.984 158.235 26.76C158.085 26.536 157.888 26.3653 157.643 26.248C157.408 26.1307 157.125 26.072 156.795 26.072C156.315 26.072 155.931 26.168 155.643 26.36C155.365 26.5413 155.163 26.8293 155.035 27.224C154.917 27.608 154.859 28.0987 154.859 28.696V28.92C154.859 29.5067 154.917 29.992 155.035 30.376C155.163 30.76 155.365 31.048 155.643 31.24C155.931 31.4213 156.315 31.512 156.795 31.512ZM166.472 33.192C165.554 33.192 164.786 33.0373 164.168 32.728C163.549 32.408 163.085 31.9227 162.776 31.272C162.466 30.6213 162.312 29.7947 162.312 28.792C162.312 27.7787 162.466 26.952 162.776 26.312C163.085 25.6613 163.549 25.1813 164.168 24.872C164.786 24.552 165.554 24.392 166.472 24.392C167.4 24.392 168.168 24.552 168.776 24.872C169.394 25.1813 169.858 25.6613 170.168 26.312C170.477 26.952 170.632 27.7787 170.632 28.792C170.632 29.7947 170.477 30.6213 170.168 31.272C169.858 31.9227 169.394 32.408 168.776 32.728C168.168 33.0373 167.4 33.192 166.472 33.192ZM166.472 31.592C166.984 31.592 167.394 31.496 167.704 31.304C168.024 31.1013 168.253 30.8027 168.392 30.408C168.541 30.0027 168.616 29.5013 168.616 28.904V28.68C168.616 28.0827 168.541 27.5867 168.392 27.192C168.253 26.7867 168.024 26.488 167.704 26.296C167.394 26.0933 166.984 25.992 166.472 25.992C165.96 25.992 165.544 26.0933 165.224 26.296C164.914 26.488 164.685 26.7867 164.536 27.192C164.397 27.5867 164.328 28.0827 164.328 28.68V28.904C164.328 29.5013 164.397 30.0027 164.536 30.408C164.685 30.8027 164.914 31.1013 165.224 31.304C165.544 31.496 165.96 31.592 166.472 31.592Z" fill="white"/>
</svg>
