<svg width="142" height="50" viewBox="0 0 142 50" fill="none" xmlns="http://www.w3.org/2000/svg">
<rect width="142" height="50" rx="8" fill="#04D361"/>
<path d="M40.108 30L44.86 17.652H48.172L52.924 30H50.026L49.144 27.57H43.762L42.88 30H40.108ZM44.536 25.41H48.37L47.272 22.368C47.224 22.236 47.164 22.08 47.092 21.9C47.032 21.708 46.966 21.498 46.894 21.27C46.822 21.042 46.75 20.82 46.678 20.604C46.618 20.376 46.558 20.172 46.498 19.992H46.39C46.33 20.22 46.252 20.49 46.156 20.802C46.06 21.102 45.964 21.396 45.868 21.684C45.772 21.96 45.694 22.188 45.634 22.368L44.536 25.41ZM57.5254 30.216C56.7454 30.216 56.0674 30.042 55.4914 29.694C54.9274 29.334 54.4894 28.788 54.1774 28.056C53.8654 27.324 53.7094 26.388 53.7094 25.248C53.7094 24.108 53.8654 23.178 54.1774 22.458C54.5014 21.726 54.9394 21.186 55.4914 20.838C56.0554 20.49 56.7034 20.316 57.4354 20.316C57.8434 20.316 58.2214 20.364 58.5694 20.46C58.9294 20.544 59.2414 20.682 59.5054 20.874C59.7814 21.066 60.0154 21.3 60.2074 21.576H60.3154V16.986H62.8174V30H60.7654L60.5674 28.722H60.4414C60.1294 29.226 59.7214 29.604 59.2174 29.856C58.7134 30.096 58.1494 30.216 57.5254 30.216ZM58.3174 28.164C58.7854 28.164 59.1634 28.056 59.4514 27.84C59.7514 27.624 59.9734 27.312 60.1174 26.904C60.2614 26.496 60.3334 26.01 60.3334 25.446V25.122C60.3334 24.702 60.2914 24.318 60.2074 23.97C60.1354 23.622 60.0154 23.334 59.8474 23.106C59.6794 22.866 59.4694 22.686 59.2174 22.566C58.9654 22.434 58.6654 22.368 58.3174 22.368C57.8134 22.368 57.4114 22.47 57.1114 22.674C56.8114 22.866 56.5954 23.166 56.4634 23.574C56.3314 23.97 56.2654 24.468 56.2654 25.068V25.482C56.2654 26.082 56.3314 26.58 56.4634 26.976C56.5954 27.372 56.8114 27.672 57.1114 27.876C57.4114 28.068 57.8134 28.164 58.3174 28.164ZM69.4846 30.216C68.4526 30.216 67.5766 30.042 66.8566 29.694C66.1366 29.334 65.5906 28.788 65.2186 28.056C64.8466 27.312 64.6606 26.382 64.6606 25.266C64.6606 24.126 64.8466 23.196 65.2186 22.476C65.5906 21.744 66.1366 21.204 66.8566 20.856C67.5766 20.496 68.4526 20.316 69.4846 20.316C70.5406 20.316 71.4226 20.496 72.1306 20.856C72.8506 21.204 73.3966 21.744 73.7686 22.476C74.1406 23.196 74.3266 24.126 74.3266 25.266C74.3266 26.382 74.1406 27.312 73.7686 28.056C73.3966 28.788 72.8506 29.334 72.1306 29.694C71.4226 30.042 70.5406 30.216 69.4846 30.216ZM69.4846 28.272C70.0366 28.272 70.4746 28.17 70.7986 27.966C71.1346 27.762 71.3806 27.45 71.5366 27.03C71.6926 26.61 71.7706 26.094 71.7706 25.482V25.05C71.7706 24.438 71.6926 23.922 71.5366 23.502C71.3806 23.082 71.1346 22.77 70.7986 22.566C70.4746 22.35 70.0366 22.242 69.4846 22.242C68.9446 22.242 68.5066 22.35 68.1706 22.566C67.8466 22.77 67.6066 23.082 67.4506 23.502C67.2946 23.922 67.2166 24.438 67.2166 25.05V25.482C67.2166 26.094 67.2946 26.61 67.4506 27.03C67.6066 27.45 67.8466 27.762 68.1706 27.966C68.5066 28.17 68.9446 28.272 69.4846 28.272ZM78.9936 30.216C78.3936 30.216 77.9076 30.108 77.5356 29.892C77.1636 29.676 76.8936 29.388 76.7256 29.028C76.5576 28.656 76.4736 28.248 76.4736 27.804V22.458H75.3036V20.532H76.5636L77.0316 17.832H78.9756V20.532H80.7036V22.458H78.9756V27.39C78.9756 27.678 79.0416 27.9 79.1736 28.056C79.3056 28.2 79.5216 28.272 79.8216 28.272H80.7036V29.928C80.5596 29.976 80.3916 30.018 80.1996 30.054C80.0076 30.102 79.8036 30.138 79.5876 30.162C79.3716 30.198 79.1736 30.216 78.9936 30.216ZM84.822 30.216C84.51 30.216 84.174 30.18 83.814 30.108C83.466 30.036 83.136 29.91 82.824 29.73C82.512 29.538 82.254 29.268 82.05 28.92C81.858 28.56 81.762 28.104 81.762 27.552C81.762 26.892 81.906 26.346 82.194 25.914C82.482 25.482 82.89 25.146 83.418 24.906C83.958 24.654 84.6 24.48 85.344 24.384C86.088 24.288 86.91 24.24 87.81 24.24V23.538C87.81 23.262 87.762 23.022 87.666 22.818C87.582 22.614 87.426 22.452 87.198 22.332C86.982 22.212 86.676 22.152 86.28 22.152C85.884 22.152 85.56 22.2 85.308 22.296C85.068 22.392 84.894 22.518 84.786 22.674C84.69 22.818 84.642 22.98 84.642 23.16V23.376H82.212C82.2 23.316 82.194 23.262 82.194 23.214C82.194 23.154 82.194 23.082 82.194 22.998C82.194 22.446 82.362 21.972 82.698 21.576C83.034 21.168 83.508 20.856 84.12 20.64C84.732 20.424 85.446 20.316 86.262 20.316C87.138 20.316 87.87 20.43 88.458 20.658C89.058 20.886 89.514 21.222 89.826 21.666C90.15 22.11 90.312 22.668 90.312 23.34V27.642C90.312 27.858 90.372 28.02 90.492 28.128C90.624 28.224 90.768 28.272 90.924 28.272H91.518V29.91C91.398 29.97 91.212 30.03 90.96 30.09C90.708 30.162 90.402 30.198 90.042 30.198C89.694 30.198 89.382 30.144 89.106 30.036C88.842 29.94 88.62 29.802 88.44 29.622C88.26 29.43 88.134 29.202 88.062 28.938H87.936C87.732 29.19 87.48 29.412 87.18 29.604C86.892 29.796 86.55 29.946 86.154 30.054C85.77 30.162 85.326 30.216 84.822 30.216ZM85.668 28.326C86.004 28.326 86.304 28.278 86.568 28.182C86.832 28.074 87.054 27.936 87.234 27.768C87.414 27.588 87.552 27.372 87.648 27.12C87.756 26.868 87.81 26.598 87.81 26.31V25.788C87.138 25.788 86.538 25.836 86.01 25.932C85.482 26.016 85.062 26.166 84.75 26.382C84.45 26.598 84.3 26.898 84.3 27.282C84.3 27.498 84.354 27.684 84.462 27.84C84.57 27.996 84.726 28.116 84.93 28.2C85.134 28.284 85.38 28.326 85.668 28.326ZM92.7614 30V20.532H94.8314L95.0294 22.008H95.1554C95.2754 21.696 95.4314 21.414 95.6234 21.162C95.8154 20.898 96.0554 20.688 96.3434 20.532C96.6314 20.376 96.9674 20.298 97.3514 20.298C97.5554 20.298 97.7414 20.322 97.9094 20.37C98.0774 20.406 98.2034 20.442 98.2874 20.478V22.746H97.5134C97.1414 22.746 96.8114 22.8 96.5234 22.908C96.2474 23.004 96.0134 23.16 95.8214 23.376C95.6294 23.592 95.4854 23.856 95.3894 24.168C95.3054 24.48 95.2634 24.846 95.2634 25.266V30H92.7614Z" fill="white"/>
</svg>
