<svg width="137" height="32" viewBox="0 0 137 32" fill="none" xmlns="http://www.w3.org/2000/svg">
<rect width="137" height="32" rx="8" fill="#A27DF8"/>
<path d="M28.536 21.144C27.696 21.144 26.976 20.996 26.376 20.7C25.784 20.404 25.328 19.944 25.008 19.32C24.696 18.688 24.54 17.876 24.54 16.884C24.54 15.436 24.892 14.364 25.596 13.668C26.3 12.972 27.28 12.624 28.536 12.624C29.216 12.624 29.828 12.74 30.372 12.972C30.924 13.204 31.36 13.556 31.68 14.028C32.008 14.492 32.172 15.084 32.172 15.804H30.576C30.576 15.404 30.488 15.068 30.312 14.796C30.144 14.516 29.908 14.304 29.604 14.16C29.3 14.016 28.952 13.944 28.56 13.944C28.016 13.944 27.564 14.052 27.204 14.268C26.844 14.476 26.576 14.788 26.4 15.204C26.232 15.62 26.148 16.136 26.148 16.752V17.016C26.148 17.64 26.232 18.16 26.4 18.576C26.576 18.992 26.84 19.304 27.192 19.512C27.552 19.72 28.008 19.824 28.56 19.824C28.976 19.824 29.34 19.756 29.652 19.62C29.964 19.476 30.204 19.268 30.372 18.996C30.548 18.716 30.636 18.376 30.636 17.976H32.172C32.172 18.696 32.012 19.292 31.692 19.764C31.372 20.228 30.936 20.576 30.384 20.808C29.84 21.032 29.224 21.144 28.536 21.144ZM35.0484 21.144C34.8724 21.144 34.6684 21.12 34.4364 21.072C34.2124 21.032 33.9924 20.952 33.7764 20.832C33.5684 20.712 33.3964 20.536 33.2604 20.304C33.1244 20.064 33.0564 19.752 33.0564 19.368C33.0564 18.936 33.1524 18.58 33.3444 18.3C33.5364 18.012 33.8044 17.788 34.1484 17.628C34.5004 17.46 34.9164 17.344 35.3964 17.28C35.8844 17.208 36.4164 17.172 36.9924 17.172V16.656C36.9924 16.472 36.9644 16.308 36.9084 16.164C36.8524 16.02 36.7484 15.908 36.5964 15.828C36.4524 15.74 36.2324 15.696 35.9364 15.696C35.6404 15.696 35.4084 15.732 35.2404 15.804C35.0724 15.876 34.9564 15.964 34.8924 16.068C34.8284 16.172 34.7964 16.28 34.7964 16.392V16.56H33.3804C33.3724 16.52 33.3684 16.48 33.3684 16.44C33.3684 16.4 33.3684 16.352 33.3684 16.296C33.3684 15.936 33.4764 15.624 33.6924 15.36C33.9084 15.096 34.2084 14.896 34.5924 14.76C34.9764 14.616 35.4204 14.544 35.9244 14.544C36.5004 14.544 36.9724 14.624 37.3404 14.784C37.7164 14.944 37.9964 15.172 38.1804 15.468C38.3644 15.764 38.4564 16.124 38.4564 16.548V19.524C38.4564 19.676 38.5004 19.784 38.5884 19.848C38.6764 19.912 38.7724 19.944 38.8764 19.944H39.2604V20.952C39.1804 20.984 39.0644 21.02 38.9124 21.06C38.7604 21.108 38.5724 21.132 38.3484 21.132C38.1404 21.132 37.9524 21.096 37.7844 21.024C37.6244 20.96 37.4884 20.864 37.3764 20.736C37.2644 20.608 37.1844 20.456 37.1364 20.28H37.0644C36.9284 20.448 36.7644 20.6 36.5724 20.736C36.3884 20.864 36.1684 20.964 35.9124 21.036C35.6644 21.108 35.3764 21.144 35.0484 21.144ZM35.4924 19.944C35.7324 19.944 35.9444 19.908 36.1284 19.836C36.3204 19.764 36.4764 19.664 36.5964 19.536C36.7244 19.408 36.8204 19.252 36.8844 19.068C36.9564 18.884 36.9924 18.684 36.9924 18.468V18.18C36.5524 18.18 36.1444 18.208 35.7684 18.264C35.4004 18.32 35.1044 18.424 34.8804 18.576C34.6644 18.728 34.5564 18.944 34.5564 19.224C34.5564 19.368 34.5884 19.496 34.6524 19.608C34.7244 19.712 34.8284 19.796 34.9644 19.86C35.1084 19.916 35.2844 19.944 35.4924 19.944ZM42.2924 21.144C41.7804 21.144 41.3364 21.028 40.9604 20.796C40.5844 20.564 40.2924 20.204 40.0844 19.716C39.8844 19.228 39.7844 18.6 39.7844 17.832C39.7844 17.072 39.8884 16.452 40.0964 15.972C40.3044 15.484 40.5924 15.124 40.9604 14.892C41.3284 14.66 41.7444 14.544 42.2084 14.544C42.4964 14.544 42.7604 14.576 43.0004 14.64C43.2404 14.704 43.4524 14.804 43.6364 14.94C43.8204 15.068 43.9764 15.228 44.1044 15.42H44.1764V12.324H45.6404V21H44.4284L44.3084 20.16H44.2244C44.0244 20.488 43.7524 20.736 43.4084 20.904C43.0724 21.064 42.7004 21.144 42.2924 21.144ZM42.7484 19.884C43.0844 19.884 43.3564 19.808 43.5644 19.656C43.7724 19.504 43.9244 19.284 44.0204 18.996C44.1244 18.708 44.1764 18.356 44.1764 17.94V17.784C44.1764 17.472 44.1484 17.192 44.0924 16.944C44.0364 16.696 43.9484 16.488 43.8284 16.32C43.7164 16.152 43.5684 16.024 43.3844 15.936C43.2084 15.848 42.9964 15.804 42.7484 15.804C42.3884 15.804 42.1004 15.876 41.8844 16.02C41.6764 16.156 41.5244 16.372 41.4284 16.668C41.3404 16.956 41.2964 17.324 41.2964 17.772V17.94C41.2964 18.38 41.3404 18.744 41.4284 19.032C41.5244 19.32 41.6764 19.536 41.8844 19.68C42.1004 19.816 42.3884 19.884 42.7484 19.884ZM48.818 21.144C48.642 21.144 48.438 21.12 48.206 21.072C47.982 21.032 47.762 20.952 47.546 20.832C47.338 20.712 47.166 20.536 47.03 20.304C46.894 20.064 46.826 19.752 46.826 19.368C46.826 18.936 46.922 18.58 47.114 18.3C47.306 18.012 47.574 17.788 47.918 17.628C48.27 17.46 48.686 17.344 49.166 17.28C49.654 17.208 50.186 17.172 50.762 17.172V16.656C50.762 16.472 50.734 16.308 50.678 16.164C50.622 16.02 50.518 15.908 50.366 15.828C50.222 15.74 50.002 15.696 49.706 15.696C49.41 15.696 49.178 15.732 49.01 15.804C48.842 15.876 48.726 15.964 48.662 16.068C48.598 16.172 48.566 16.28 48.566 16.392V16.56H47.15C47.142 16.52 47.138 16.48 47.138 16.44C47.138 16.4 47.138 16.352 47.138 16.296C47.138 15.936 47.246 15.624 47.462 15.36C47.678 15.096 47.978 14.896 48.362 14.76C48.746 14.616 49.19 14.544 49.694 14.544C50.27 14.544 50.742 14.624 51.11 14.784C51.486 14.944 51.766 15.172 51.95 15.468C52.134 15.764 52.226 16.124 52.226 16.548V19.524C52.226 19.676 52.27 19.784 52.358 19.848C52.446 19.912 52.542 19.944 52.646 19.944H53.03V20.952C52.95 20.984 52.834 21.02 52.682 21.06C52.53 21.108 52.342 21.132 52.118 21.132C51.91 21.132 51.722 21.096 51.554 21.024C51.394 20.96 51.258 20.864 51.146 20.736C51.034 20.608 50.954 20.456 50.906 20.28H50.834C50.698 20.448 50.534 20.6 50.342 20.736C50.158 20.864 49.938 20.964 49.682 21.036C49.434 21.108 49.146 21.144 48.818 21.144ZM49.262 19.944C49.502 19.944 49.714 19.908 49.898 19.836C50.09 19.764 50.246 19.664 50.366 19.536C50.494 19.408 50.59 19.252 50.654 19.068C50.726 18.884 50.762 18.684 50.762 18.468V18.18C50.322 18.18 49.914 18.208 49.538 18.264C49.17 18.32 48.874 18.424 48.65 18.576C48.434 18.728 48.326 18.944 48.326 19.224C48.326 19.368 48.358 19.496 48.422 19.608C48.494 19.712 48.598 19.796 48.734 19.86C48.878 19.916 49.054 19.944 49.262 19.944ZM56.3259 21.144C55.8699 21.144 55.4699 21.096 55.1259 21C54.7819 20.896 54.4939 20.756 54.2619 20.58C54.0299 20.404 53.8539 20.2 53.7339 19.968C53.6219 19.728 53.5659 19.468 53.5659 19.188C53.5659 19.148 53.5659 19.112 53.5659 19.08C53.5739 19.048 53.5779 19.024 53.5779 19.008H55.0179C55.0179 19.024 55.0179 19.04 55.0179 19.056C55.0179 19.072 55.0179 19.088 55.0179 19.104C55.0259 19.32 55.0939 19.496 55.2219 19.632C55.3499 19.76 55.5179 19.852 55.7259 19.908C55.9339 19.964 56.1539 19.992 56.3859 19.992C56.5939 19.992 56.7899 19.972 56.9739 19.932C57.1659 19.884 57.3219 19.812 57.4419 19.716C57.5699 19.612 57.6339 19.48 57.6339 19.32C57.6339 19.112 57.5539 18.952 57.3939 18.84C57.2339 18.728 57.0219 18.636 56.7579 18.564C56.5019 18.492 56.2259 18.416 55.9299 18.336C55.6659 18.264 55.4019 18.184 55.1379 18.096C54.8739 18.008 54.6339 17.896 54.4179 17.76C54.2099 17.624 54.0379 17.448 53.9019 17.232C53.7739 17.016 53.7099 16.748 53.7099 16.428C53.7099 16.116 53.7779 15.844 53.9139 15.612C54.0499 15.38 54.2379 15.188 54.4779 15.036C54.7179 14.876 55.0019 14.756 55.3299 14.676C55.6579 14.596 56.0139 14.556 56.3979 14.556C56.7739 14.556 57.1139 14.596 57.4179 14.676C57.7299 14.756 57.9979 14.872 58.2219 15.024C58.4539 15.168 58.6299 15.348 58.7499 15.564C58.8779 15.772 58.9419 16.004 58.9419 16.26C58.9419 16.316 58.9379 16.372 58.9299 16.428C58.9299 16.484 58.9299 16.516 58.9299 16.524H57.5019V16.44C57.5019 16.288 57.4539 16.16 57.3579 16.056C57.2699 15.944 57.1379 15.856 56.9619 15.792C56.7939 15.728 56.5819 15.696 56.3259 15.696C56.1339 15.696 55.9659 15.712 55.8219 15.744C55.6779 15.776 55.5579 15.82 55.4619 15.876C55.3739 15.932 55.3059 15.996 55.2579 16.068C55.2099 16.14 55.1859 16.22 55.1859 16.308C55.1859 16.46 55.2459 16.58 55.3659 16.668C55.4859 16.756 55.6459 16.832 55.8459 16.896C56.0539 16.96 56.2779 17.028 56.5179 17.1C56.8059 17.18 57.1019 17.264 57.4059 17.352C57.7099 17.432 57.9899 17.536 58.2459 17.664C58.5099 17.792 58.7219 17.972 58.8819 18.204C59.0419 18.436 59.1219 18.744 59.1219 19.128C59.1219 19.496 59.0499 19.812 58.9059 20.076C58.7699 20.332 58.5739 20.54 58.3179 20.7C58.0699 20.852 57.7739 20.964 57.4299 21.036C57.0939 21.108 56.7259 21.144 56.3259 21.144ZM62.0261 21.144C61.6341 21.144 61.3261 21.068 61.1021 20.916C60.8781 20.756 60.7181 20.556 60.6221 20.316C60.5341 20.068 60.4901 19.816 60.4901 19.56V15.888H59.7341V14.688H60.5261L60.7901 12.924H61.9541V14.688H63.0461V15.888H61.9541V19.416C61.9541 19.584 61.9981 19.716 62.0861 19.812C62.1741 19.9 62.3061 19.944 62.4821 19.944H63.0461V20.952C62.9661 20.984 62.8661 21.012 62.7461 21.036C62.6341 21.068 62.5141 21.092 62.3861 21.108C62.2581 21.132 62.1381 21.144 62.0261 21.144ZM64.1316 21V14.688H65.3556L65.4756 15.684H65.5596C65.6396 15.484 65.7356 15.3 65.8476 15.132C65.9676 14.956 66.1196 14.816 66.3036 14.712C66.4876 14.6 66.7116 14.544 66.9756 14.544C67.1036 14.544 67.2196 14.556 67.3236 14.58C67.4356 14.604 67.5196 14.628 67.5756 14.652V16.032H67.1316C66.8836 16.032 66.6636 16.068 66.4716 16.14C66.2796 16.204 66.1156 16.308 65.9796 16.452C65.8516 16.596 65.7556 16.776 65.6916 16.992C65.6276 17.208 65.5956 17.46 65.5956 17.748V21H64.1316ZM69.982 21.144C69.806 21.144 69.602 21.12 69.37 21.072C69.146 21.032 68.926 20.952 68.71 20.832C68.502 20.712 68.33 20.536 68.194 20.304C68.058 20.064 67.99 19.752 67.99 19.368C67.99 18.936 68.086 18.58 68.278 18.3C68.47 18.012 68.738 17.788 69.082 17.628C69.434 17.46 69.85 17.344 70.33 17.28C70.818 17.208 71.35 17.172 71.926 17.172V16.656C71.926 16.472 71.898 16.308 71.842 16.164C71.786 16.02 71.682 15.908 71.53 15.828C71.386 15.74 71.166 15.696 70.87 15.696C70.574 15.696 70.342 15.732 70.174 15.804C70.006 15.876 69.89 15.964 69.826 16.068C69.762 16.172 69.73 16.28 69.73 16.392V16.56H68.314C68.306 16.52 68.302 16.48 68.302 16.44C68.302 16.4 68.302 16.352 68.302 16.296C68.302 15.936 68.41 15.624 68.626 15.36C68.842 15.096 69.142 14.896 69.526 14.76C69.91 14.616 70.354 14.544 70.858 14.544C71.434 14.544 71.906 14.624 72.274 14.784C72.65 14.944 72.93 15.172 73.114 15.468C73.298 15.764 73.39 16.124 73.39 16.548V19.524C73.39 19.676 73.434 19.784 73.522 19.848C73.61 19.912 73.706 19.944 73.81 19.944H74.194V20.952C74.114 20.984 73.998 21.02 73.846 21.06C73.694 21.108 73.506 21.132 73.282 21.132C73.074 21.132 72.886 21.096 72.718 21.024C72.558 20.96 72.422 20.864 72.31 20.736C72.198 20.608 72.118 20.456 72.07 20.28H71.998C71.862 20.448 71.698 20.6 71.506 20.736C71.322 20.864 71.102 20.964 70.846 21.036C70.598 21.108 70.31 21.144 69.982 21.144ZM70.426 19.944C70.666 19.944 70.878 19.908 71.062 19.836C71.254 19.764 71.41 19.664 71.53 19.536C71.658 19.408 71.754 19.252 71.818 19.068C71.89 18.884 71.926 18.684 71.926 18.468V18.18C71.486 18.18 71.078 18.208 70.702 18.264C70.334 18.32 70.038 18.424 69.814 18.576C69.598 18.728 69.49 18.944 69.49 19.224C69.49 19.368 69.522 19.496 69.586 19.608C69.658 19.712 69.762 19.796 69.898 19.86C70.042 19.916 70.218 19.944 70.426 19.944ZM75.03 21V14.688H76.254L76.374 15.684H76.458C76.538 15.484 76.634 15.3 76.746 15.132C76.866 14.956 77.018 14.816 77.202 14.712C77.386 14.6 77.61 14.544 77.874 14.544C78.002 14.544 78.118 14.556 78.222 14.58C78.334 14.604 78.418 14.628 78.474 14.652V16.032H78.03C77.782 16.032 77.562 16.068 77.37 16.14C77.178 16.204 77.014 16.308 76.878 16.452C76.75 16.596 76.654 16.776 76.59 16.992C76.526 17.208 76.494 17.46 76.494 17.748V21H75.03ZM83.1656 21.144C82.9896 21.144 82.7856 21.12 82.5536 21.072C82.3296 21.032 82.1096 20.952 81.8936 20.832C81.6856 20.712 81.5136 20.536 81.3776 20.304C81.2416 20.064 81.1736 19.752 81.1736 19.368C81.1736 18.936 81.2696 18.58 81.4616 18.3C81.6536 18.012 81.9216 17.788 82.2656 17.628C82.6176 17.46 83.0336 17.344 83.5136 17.28C84.0016 17.208 84.5336 17.172 85.1096 17.172V16.656C85.1096 16.472 85.0816 16.308 85.0256 16.164C84.9696 16.02 84.8656 15.908 84.7136 15.828C84.5696 15.74 84.3496 15.696 84.0536 15.696C83.7576 15.696 83.5256 15.732 83.3576 15.804C83.1896 15.876 83.0736 15.964 83.0096 16.068C82.9456 16.172 82.9136 16.28 82.9136 16.392V16.56H81.4976C81.4896 16.52 81.4856 16.48 81.4856 16.44C81.4856 16.4 81.4856 16.352 81.4856 16.296C81.4856 15.936 81.5936 15.624 81.8096 15.36C82.0256 15.096 82.3256 14.896 82.7096 14.76C83.0936 14.616 83.5376 14.544 84.0416 14.544C84.6176 14.544 85.0896 14.624 85.4576 14.784C85.8336 14.944 86.1136 15.172 86.2976 15.468C86.4816 15.764 86.5736 16.124 86.5736 16.548V19.524C86.5736 19.676 86.6176 19.784 86.7056 19.848C86.7936 19.912 86.8896 19.944 86.9936 19.944H87.3776V20.952C87.2976 20.984 87.1816 21.02 87.0296 21.06C86.8776 21.108 86.6896 21.132 86.4656 21.132C86.2576 21.132 86.0696 21.096 85.9016 21.024C85.7416 20.96 85.6056 20.864 85.4936 20.736C85.3816 20.608 85.3016 20.456 85.2536 20.28H85.1816C85.0456 20.448 84.8816 20.6 84.6896 20.736C84.5056 20.864 84.2856 20.964 84.0296 21.036C83.7816 21.108 83.4936 21.144 83.1656 21.144ZM83.6096 19.944C83.8496 19.944 84.0616 19.908 84.2456 19.836C84.4376 19.764 84.5936 19.664 84.7136 19.536C84.8416 19.408 84.9376 19.252 85.0016 19.068C85.0736 18.884 85.1096 18.684 85.1096 18.468V18.18C84.6696 18.18 84.2616 18.208 83.8856 18.264C83.5176 18.32 83.2216 18.424 82.9976 18.576C82.7816 18.728 82.6736 18.944 82.6736 19.224C82.6736 19.368 82.7056 19.496 82.7696 19.608C82.8416 19.712 82.9456 19.796 83.0816 19.86C83.2256 19.916 83.4016 19.944 83.6096 19.944ZM88.2136 21V14.688H89.4376L89.5576 15.528H89.6416C89.7856 15.336 89.9536 15.168 90.1456 15.024C90.3456 14.872 90.5696 14.756 90.8176 14.676C91.0736 14.588 91.3536 14.544 91.6576 14.544C92.0576 14.544 92.4096 14.616 92.7136 14.76C93.0256 14.904 93.2696 15.136 93.4456 15.456C93.6216 15.776 93.7096 16.204 93.7096 16.74V21H92.2336V17.004C92.2336 16.78 92.2056 16.596 92.1496 16.452C92.1016 16.3 92.0256 16.18 91.9216 16.092C91.8256 15.996 91.7056 15.928 91.5616 15.888C91.4176 15.848 91.2576 15.828 91.0816 15.828C90.8176 15.828 90.5776 15.892 90.3616 16.02C90.1536 16.148 89.9856 16.324 89.8576 16.548C89.7376 16.772 89.6776 17.032 89.6776 17.328V21H88.2136ZM95.2214 13.716V12.324H96.6854V13.716H95.2214ZM95.2214 21V14.688H96.6854V21H95.2214ZM98.2448 21V14.688H99.4688L99.5888 15.528H99.6728C99.8088 15.336 99.9648 15.168 100.141 15.024C100.317 14.872 100.517 14.756 100.741 14.676C100.973 14.588 101.225 14.544 101.497 14.544C101.865 14.544 102.193 14.62 102.481 14.772C102.769 14.924 102.993 15.176 103.153 15.528H103.237C103.373 15.336 103.533 15.168 103.717 15.024C103.901 14.872 104.113 14.756 104.353 14.676C104.593 14.588 104.853 14.544 105.133 14.544C105.509 14.544 105.841 14.612 106.129 14.748C106.417 14.884 106.645 15.108 106.813 15.42C106.981 15.732 107.065 16.148 107.065 16.668V21H105.601V16.968C105.601 16.752 105.577 16.572 105.529 16.428C105.481 16.276 105.413 16.16 105.325 16.08C105.245 15.992 105.141 15.928 105.013 15.888C104.893 15.848 104.761 15.828 104.617 15.828C104.385 15.828 104.177 15.892 103.993 16.02C103.809 16.148 103.661 16.324 103.549 16.548C103.445 16.772 103.393 17.032 103.393 17.328V21H101.929V16.968C101.929 16.752 101.905 16.572 101.857 16.428C101.809 16.276 101.741 16.16 101.653 16.08C101.573 15.992 101.469 15.928 101.341 15.888C101.221 15.848 101.089 15.828 100.945 15.828C100.713 15.828 100.501 15.892 100.309 16.02C100.125 16.148 99.9768 16.324 99.8648 16.548C99.7608 16.772 99.7088 17.032 99.7088 17.328V21H98.2448ZM110.201 21.144C110.025 21.144 109.821 21.12 109.589 21.072C109.365 21.032 109.145 20.952 108.929 20.832C108.721 20.712 108.549 20.536 108.413 20.304C108.277 20.064 108.209 19.752 108.209 19.368C108.209 18.936 108.305 18.58 108.497 18.3C108.689 18.012 108.957 17.788 109.301 17.628C109.653 17.46 110.069 17.344 110.549 17.28C111.037 17.208 111.569 17.172 112.145 17.172V16.656C112.145 16.472 112.117 16.308 112.061 16.164C112.005 16.02 111.901 15.908 111.749 15.828C111.605 15.74 111.385 15.696 111.089 15.696C110.793 15.696 110.561 15.732 110.393 15.804C110.225 15.876 110.109 15.964 110.045 16.068C109.981 16.172 109.949 16.28 109.949 16.392V16.56H108.533C108.525 16.52 108.521 16.48 108.521 16.44C108.521 16.4 108.521 16.352 108.521 16.296C108.521 15.936 108.629 15.624 108.845 15.36C109.061 15.096 109.361 14.896 109.745 14.76C110.129 14.616 110.573 14.544 111.077 14.544C111.653 14.544 112.125 14.624 112.493 14.784C112.869 14.944 113.149 15.172 113.333 15.468C113.517 15.764 113.609 16.124 113.609 16.548V19.524C113.609 19.676 113.653 19.784 113.741 19.848C113.829 19.912 113.925 19.944 114.029 19.944H114.413V20.952C114.333 20.984 114.217 21.02 114.065 21.06C113.913 21.108 113.725 21.132 113.501 21.132C113.293 21.132 113.105 21.096 112.937 21.024C112.777 20.96 112.641 20.864 112.529 20.736C112.417 20.608 112.337 20.456 112.289 20.28H112.217C112.081 20.448 111.917 20.6 111.725 20.736C111.541 20.864 111.321 20.964 111.065 21.036C110.817 21.108 110.529 21.144 110.201 21.144ZM110.645 19.944C110.885 19.944 111.097 19.908 111.281 19.836C111.473 19.764 111.629 19.664 111.749 19.536C111.877 19.408 111.973 19.252 112.037 19.068C112.109 18.884 112.145 18.684 112.145 18.468V18.18C111.705 18.18 111.297 18.208 110.921 18.264C110.553 18.32 110.257 18.424 110.033 18.576C109.817 18.728 109.709 18.944 109.709 19.224C109.709 19.368 109.741 19.496 109.805 19.608C109.877 19.712 109.981 19.796 110.117 19.86C110.261 19.916 110.437 19.944 110.645 19.944ZM115.249 21V12.324H116.713V21H115.249Z" fill="white"/>
</svg>
