<svg width="127" height="56" viewBox="0 0 127 56" fill="none" xmlns="http://www.w3.org/2000/svg">
<rect width="127" height="56" rx="8" fill="#04D361"/>
<path d="M45.312 33.192C44.704 33.192 44.1227 33.128 43.568 33C43.0133 32.8613 42.5227 32.6533 42.096 32.376C41.6693 32.088 41.3333 31.736 41.088 31.32C40.8427 30.8933 40.72 30.392 40.72 29.816C40.72 29.752 40.72 29.688 40.72 29.624C40.7307 29.56 40.736 29.512 40.736 29.48H42.832C42.832 29.5013 42.8267 29.544 42.816 29.608C42.816 29.6613 42.816 29.7093 42.816 29.752C42.816 30.104 42.9173 30.408 43.12 30.664C43.3227 30.9093 43.616 31.1013 44 31.24C44.384 31.368 44.8373 31.432 45.36 31.432C45.712 31.432 46.0213 31.4107 46.288 31.368C46.5653 31.3253 46.8 31.2667 46.992 31.192C47.1947 31.1067 47.36 31.0107 47.488 30.904C47.616 30.7867 47.7067 30.6587 47.76 30.52C47.824 30.3813 47.856 30.232 47.856 30.072C47.856 29.7627 47.76 29.5067 47.568 29.304C47.376 29.1013 47.1147 28.9307 46.784 28.792C46.464 28.6533 46.096 28.5307 45.68 28.424C45.2747 28.3067 44.8533 28.1893 44.416 28.072C43.9893 27.9547 43.568 27.816 43.152 27.656C42.7467 27.4853 42.3787 27.2827 42.048 27.048C41.728 26.8133 41.472 26.52 41.28 26.168C41.088 25.8053 40.992 25.3733 40.992 24.872C40.992 24.36 41.0987 23.912 41.312 23.528C41.536 23.144 41.8453 22.8293 42.24 22.584C42.6453 22.328 43.1147 22.1413 43.648 22.024C44.1813 21.896 44.7627 21.832 45.392 21.832C45.9787 21.832 46.528 21.896 47.04 22.024C47.5627 22.1413 48.0213 22.3333 48.416 22.6C48.8107 22.856 49.12 23.1867 49.344 23.592C49.568 23.9867 49.68 24.4613 49.68 25.016V25.208H47.616V25.048C47.616 24.7387 47.52 24.4773 47.328 24.264C47.1467 24.0507 46.8853 23.8853 46.544 23.768C46.2133 23.6507 45.824 23.592 45.376 23.592C44.896 23.592 44.4853 23.64 44.144 23.736C43.8027 23.8213 43.5413 23.9547 43.36 24.136C43.1787 24.3067 43.088 24.52 43.088 24.776C43.088 25.0427 43.184 25.2667 43.376 25.448C43.568 25.6293 43.824 25.784 44.144 25.912C44.4747 26.04 44.8427 26.1573 45.248 26.264C45.664 26.3707 46.0853 26.488 46.512 26.616C46.9493 26.7333 47.3707 26.872 47.776 27.032C48.192 27.192 48.56 27.3947 48.88 27.64C49.2107 27.8747 49.472 28.168 49.664 28.52C49.856 28.872 49.952 29.2933 49.952 29.784C49.952 30.6053 49.7493 31.2667 49.344 31.768C48.9493 32.2693 48.4 32.632 47.696 32.856C47.0027 33.08 46.208 33.192 45.312 33.192ZM53.8719 33.192C53.6372 33.192 53.3652 33.16 53.0559 33.096C52.7572 33.0427 52.4639 32.936 52.1759 32.776C51.8985 32.616 51.6692 32.3813 51.4879 32.072C51.3065 31.752 51.2159 31.336 51.2159 30.824C51.2159 30.248 51.3439 29.7733 51.5999 29.4C51.8559 29.016 52.2132 28.7173 52.6719 28.504C53.1412 28.28 53.6959 28.1253 54.3359 28.04C54.9865 27.944 55.6959 27.896 56.4639 27.896V27.208C56.4639 26.9627 56.4265 26.744 56.3519 26.552C56.2772 26.36 56.1385 26.2107 55.9359 26.104C55.7439 25.9867 55.4505 25.928 55.0559 25.928C54.6612 25.928 54.3519 25.976 54.1279 26.072C53.9039 26.168 53.7492 26.2853 53.6639 26.424C53.5785 26.5627 53.5359 26.7067 53.5359 26.856V27.08H51.6479C51.6372 27.0267 51.6319 26.9733 51.6319 26.92C51.6319 26.8667 51.6319 26.8027 51.6319 26.728C51.6319 26.248 51.7759 25.832 52.0639 25.48C52.3519 25.128 52.7519 24.8613 53.2639 24.68C53.7759 24.488 54.3679 24.392 55.0399 24.392C55.8079 24.392 56.4372 24.4987 56.9279 24.712C57.4292 24.9253 57.8025 25.2293 58.0479 25.624C58.2932 26.0187 58.4159 26.4987 58.4159 27.064V31.032C58.4159 31.2347 58.4745 31.3787 58.5919 31.464C58.7092 31.5493 58.8372 31.592 58.9759 31.592H59.4879V32.936C59.3812 32.9787 59.2265 33.0267 59.0239 33.08C58.8212 33.144 58.5705 33.176 58.2719 33.176C57.9945 33.176 57.7439 33.128 57.5199 33.032C57.3065 32.9467 57.1252 32.8187 56.9759 32.648C56.8265 32.4773 56.7199 32.2747 56.6559 32.04H56.5599C56.3785 32.264 56.1599 32.4667 55.9039 32.648C55.6585 32.8187 55.3652 32.952 55.0239 33.048C54.6932 33.144 54.3092 33.192 53.8719 33.192ZM54.4639 31.592C54.7839 31.592 55.0665 31.544 55.3119 31.448C55.5679 31.352 55.7759 31.2187 55.9359 31.048C56.1065 30.8773 56.2345 30.6693 56.3199 30.424C56.4159 30.1787 56.4639 29.912 56.4639 29.624V29.24C55.8772 29.24 55.3332 29.2773 54.8319 29.352C54.3412 29.4267 53.9465 29.5653 53.6479 29.768C53.3599 29.9707 53.2159 30.2587 53.2159 30.632C53.2159 30.824 53.2585 30.9947 53.3439 31.144C53.4399 31.2827 53.5785 31.3947 53.7599 31.48C53.9519 31.5547 54.1865 31.592 54.4639 31.592ZM60.6025 33V21.432H62.5545V33H60.6025ZM66.7938 33L63.6738 24.584H65.7218L67.0818 28.376C67.1458 28.5573 67.2204 28.8027 67.3058 29.112C67.4018 29.4107 67.4978 29.7253 67.5938 30.056C67.6898 30.376 67.7698 30.6693 67.8338 30.936H67.9138C67.9778 30.6907 68.0524 30.408 68.1378 30.088C68.2231 29.768 68.3084 29.4533 68.3938 29.144C68.4898 28.8347 68.5751 28.5787 68.6498 28.376L69.9938 24.584H71.9778L68.8418 33H66.7938ZM75.1844 33.192C74.9497 33.192 74.6777 33.16 74.3684 33.096C74.0697 33.0427 73.7764 32.936 73.4884 32.776C73.211 32.616 72.9817 32.3813 72.8004 32.072C72.619 31.752 72.5284 31.336 72.5284 30.824C72.5284 30.248 72.6564 29.7733 72.9124 29.4C73.1684 29.016 73.5257 28.7173 73.9844 28.504C74.4537 28.28 75.0084 28.1253 75.6484 28.04C76.299 27.944 77.0084 27.896 77.7764 27.896V27.208C77.7764 26.9627 77.739 26.744 77.6644 26.552C77.5897 26.36 77.451 26.2107 77.2484 26.104C77.0564 25.9867 76.763 25.928 76.3684 25.928C75.9737 25.928 75.6644 25.976 75.4404 26.072C75.2164 26.168 75.0617 26.2853 74.9764 26.424C74.891 26.5627 74.8484 26.7067 74.8484 26.856V27.08H72.9604C72.9497 27.0267 72.9444 26.9733 72.9444 26.92C72.9444 26.8667 72.9444 26.8027 72.9444 26.728C72.9444 26.248 73.0884 25.832 73.3764 25.48C73.6644 25.128 74.0644 24.8613 74.5764 24.68C75.0884 24.488 75.6804 24.392 76.3524 24.392C77.1204 24.392 77.7497 24.4987 78.2404 24.712C78.7417 24.9253 79.115 25.2293 79.3604 25.624C79.6057 26.0187 79.7284 26.4987 79.7284 27.064V31.032C79.7284 31.2347 79.787 31.3787 79.9044 31.464C80.0217 31.5493 80.1497 31.592 80.2884 31.592H80.8004V32.936C80.6937 32.9787 80.539 33.0267 80.3364 33.08C80.1337 33.144 79.883 33.176 79.5844 33.176C79.307 33.176 79.0564 33.128 78.8324 33.032C78.619 32.9467 78.4377 32.8187 78.2884 32.648C78.139 32.4773 78.0324 32.2747 77.9684 32.04H77.8724C77.691 32.264 77.4724 32.4667 77.2164 32.648C76.971 32.8187 76.6777 32.952 76.3364 33.048C76.0057 33.144 75.6217 33.192 75.1844 33.192ZM75.7764 31.592C76.0964 31.592 76.379 31.544 76.6244 31.448C76.8804 31.352 77.0884 31.2187 77.2484 31.048C77.419 30.8773 77.547 30.6693 77.6324 30.424C77.7284 30.1787 77.7764 29.912 77.7764 29.624V29.24C77.1897 29.24 76.6457 29.2773 76.1444 29.352C75.6537 29.4267 75.259 29.5653 74.9604 29.768C74.6724 29.9707 74.5284 30.2587 74.5284 30.632C74.5284 30.824 74.571 30.9947 74.6564 31.144C74.7524 31.2827 74.891 31.3947 75.0724 31.48C75.2644 31.5547 75.499 31.592 75.7764 31.592ZM81.915 33V24.584H83.547L83.707 25.912H83.819C83.9257 25.6453 84.0537 25.4 84.203 25.176C84.363 24.9413 84.5657 24.7547 84.811 24.616C85.0563 24.4667 85.355 24.392 85.707 24.392C85.8777 24.392 86.0323 24.408 86.171 24.44C86.3203 24.472 86.4323 24.504 86.507 24.536V26.376H85.915C85.5843 26.376 85.291 26.424 85.035 26.52C84.779 26.6053 84.5603 26.744 84.379 26.936C84.2083 27.128 84.0803 27.368 83.995 27.656C83.9097 27.944 83.867 28.28 83.867 28.664V33H81.915Z" fill="white"/>
</svg>
