<svg width="142" height="33" viewBox="0 0 142 33" fill="none" xmlns="http://www.w3.org/2000/svg">
<rect x="0.5" y="0.5" width="140" height="32" rx="7.5" fill="#8257E5" stroke="#E6E6F0"/>
<path d="M19.278 21.077C18.772 21.077 18.3173 20.989 17.914 20.813C17.518 20.6297 17.2063 20.3803 16.979 20.065C16.7517 19.7423 16.6343 19.372 16.627 18.954H17.694C17.7307 19.3133 17.8773 19.6177 18.134 19.867C18.398 20.109 18.7793 20.23 19.278 20.23C19.7547 20.23 20.1287 20.1127 20.4 19.878C20.6787 19.636 20.818 19.328 20.818 18.954C20.818 18.6607 20.7373 18.4223 20.576 18.239C20.4147 18.0557 20.213 17.9163 19.971 17.821C19.729 17.7257 19.4027 17.623 18.992 17.513C18.486 17.381 18.079 17.249 17.771 17.117C17.4703 16.985 17.21 16.7797 16.99 16.501C16.7773 16.215 16.671 15.8337 16.671 15.357C16.671 14.939 16.7773 14.5687 16.99 14.246C17.2027 13.9233 17.4997 13.674 17.881 13.498C18.2697 13.322 18.7133 13.234 19.212 13.234C19.9307 13.234 20.5173 13.4137 20.972 13.773C21.434 14.1323 21.6943 14.609 21.753 15.203H20.653C20.6163 14.9097 20.4623 14.653 20.191 14.433C19.9197 14.2057 19.5603 14.092 19.113 14.092C18.695 14.092 18.354 14.202 18.09 14.422C17.826 14.6347 17.694 14.9353 17.694 15.324C17.694 15.6027 17.771 15.83 17.925 16.006C18.0863 16.182 18.2807 16.3177 18.508 16.413C18.7427 16.501 19.069 16.6037 19.487 16.721C19.993 16.8603 20.4 16.9997 20.708 17.139C21.016 17.271 21.28 17.48 21.5 17.766C21.72 18.0447 21.83 18.426 21.83 18.91C21.83 19.284 21.731 19.636 21.533 19.966C21.335 20.296 21.0417 20.5637 20.653 20.769C20.2643 20.9743 19.806 21.077 19.278 21.077ZM28.8031 17.755C28.8031 17.9457 28.7921 18.1473 28.7701 18.36H23.9521C23.9887 18.954 24.1904 19.4197 24.5571 19.757C24.9311 20.087 25.3821 20.252 25.9101 20.252C26.3427 20.252 26.7021 20.153 26.9881 19.955C27.2814 19.7497 27.4867 19.4783 27.6041 19.141H28.6821C28.5207 19.7203 28.1981 20.1933 27.7141 20.56C27.2301 20.9193 26.6287 21.099 25.9101 21.099C25.3381 21.099 24.8247 20.9707 24.3701 20.714C23.9227 20.4573 23.5707 20.0943 23.3141 19.625C23.0574 19.1483 22.9291 18.5983 22.9291 17.975C22.9291 17.3517 23.0537 16.8053 23.3031 16.336C23.5524 15.8667 23.9007 15.5073 24.3481 15.258C24.8027 15.0013 25.3234 14.873 25.9101 14.873C26.4821 14.873 26.9881 14.9977 27.4281 15.247C27.8681 15.4963 28.2054 15.841 28.4401 16.281C28.6821 16.7137 28.8031 17.205 28.8031 17.755ZM27.7691 17.546C27.7691 17.1647 27.6847 16.8383 27.5161 16.567C27.3474 16.2883 27.1164 16.0793 26.8231 15.94C26.5371 15.7933 26.2181 15.72 25.8661 15.72C25.3601 15.72 24.9274 15.8813 24.5681 16.204C24.2161 16.5267 24.0144 16.974 23.9631 17.546H27.7691ZM31.1253 12.86V21H30.1243V12.86H31.1253ZM38.3314 17.755C38.3314 17.9457 38.3204 18.1473 38.2984 18.36H33.4804C33.517 18.954 33.7187 19.4197 34.0854 19.757C34.4594 20.087 34.9104 20.252 35.4384 20.252C35.871 20.252 36.2304 20.153 36.5164 19.955C36.8097 19.7497 37.015 19.4783 37.1324 19.141H38.2104C38.049 19.7203 37.7264 20.1933 37.2424 20.56C36.7584 20.9193 36.157 21.099 35.4384 21.099C34.8664 21.099 34.353 20.9707 33.8984 20.714C33.451 20.4573 33.099 20.0943 32.8424 19.625C32.5857 19.1483 32.4574 18.5983 32.4574 17.975C32.4574 17.3517 32.582 16.8053 32.8314 16.336C33.0807 15.8667 33.429 15.5073 33.8764 15.258C34.331 15.0013 34.8517 14.873 35.4384 14.873C36.0104 14.873 36.5164 14.9977 36.9564 15.247C37.3964 15.4963 37.7337 15.841 37.9684 16.281C38.2104 16.7137 38.3314 17.205 38.3314 17.755ZM37.2974 17.546C37.2974 17.1647 37.213 16.8383 37.0444 16.567C36.8757 16.2883 36.6447 16.0793 36.3514 15.94C36.0654 15.7933 35.7464 15.72 35.3944 15.72C34.8884 15.72 34.4557 15.8813 34.0964 16.204C33.7444 16.5267 33.5427 16.974 33.4914 17.546H37.2974ZM39.2787 17.975C39.2787 17.3517 39.4033 16.809 39.6527 16.347C39.902 15.8777 40.2467 15.5147 40.6867 15.258C41.134 15.0013 41.6437 14.873 42.2157 14.873C42.9563 14.873 43.565 15.0527 44.0417 15.412C44.5257 15.7713 44.8447 16.27 44.9987 16.908H43.9207C43.818 16.5413 43.6163 16.2517 43.3157 16.039C43.0223 15.8263 42.6557 15.72 42.2157 15.72C41.6437 15.72 41.1817 15.918 40.8297 16.314C40.4777 16.7027 40.3017 17.2563 40.3017 17.975C40.3017 18.701 40.4777 19.262 40.8297 19.658C41.1817 20.054 41.6437 20.252 42.2157 20.252C42.6557 20.252 43.0223 20.1493 43.3157 19.944C43.609 19.7387 43.8107 19.4453 43.9207 19.064H44.9987C44.8373 19.68 44.5147 20.175 44.0307 20.549C43.5467 20.9157 42.9417 21.099 42.2157 21.099C41.6437 21.099 41.134 20.9707 40.6867 20.714C40.2467 20.4573 39.902 20.0943 39.6527 19.625C39.4033 19.1557 39.2787 18.6057 39.2787 17.975ZM46.8513 13.993C46.6606 13.993 46.4993 13.927 46.3673 13.795C46.2353 13.663 46.1693 13.5017 46.1693 13.311C46.1693 13.1203 46.2353 12.959 46.3673 12.827C46.4993 12.695 46.6606 12.629 46.8513 12.629C47.0346 12.629 47.1886 12.695 47.3133 12.827C47.4453 12.959 47.5113 13.1203 47.5113 13.311C47.5113 13.5017 47.4453 13.663 47.3133 13.795C47.1886 13.927 47.0346 13.993 46.8513 13.993ZM47.3353 14.972V21H46.3343V14.972H47.3353ZM51.6703 21.099C51.1057 21.099 50.5923 20.9707 50.1303 20.714C49.6757 20.4573 49.3163 20.0943 49.0523 19.625C48.7957 19.1483 48.6673 18.5983 48.6673 17.975C48.6673 17.359 48.7993 16.8163 49.0633 16.347C49.3347 15.8703 49.7013 15.5073 50.1633 15.258C50.6253 15.0013 51.1423 14.873 51.7143 14.873C52.2863 14.873 52.8033 15.0013 53.2653 15.258C53.7273 15.5073 54.0903 15.8667 54.3543 16.336C54.6257 16.8053 54.7613 17.3517 54.7613 17.975C54.7613 18.5983 54.622 19.1483 54.3433 19.625C54.072 20.0943 53.7017 20.4573 53.2323 20.714C52.763 20.9707 52.2423 21.099 51.6703 21.099ZM51.6703 20.219C52.0297 20.219 52.367 20.1347 52.6823 19.966C52.9977 19.7973 53.2507 19.5443 53.4413 19.207C53.6393 18.8697 53.7383 18.459 53.7383 17.975C53.7383 17.491 53.643 17.0803 53.4523 16.743C53.2617 16.4057 53.0123 16.1563 52.7043 15.995C52.3963 15.8263 52.0627 15.742 51.7033 15.742C51.3367 15.742 50.9993 15.8263 50.6913 15.995C50.3907 16.1563 50.1487 16.4057 49.9653 16.743C49.782 17.0803 49.6903 17.491 49.6903 17.975C49.6903 18.4663 49.7783 18.8807 49.9543 19.218C50.1377 19.5553 50.3797 19.8083 50.6803 19.977C50.981 20.1383 51.311 20.219 51.6703 20.219ZM59.0145 14.862C59.7478 14.862 60.3418 15.0857 60.7965 15.533C61.2511 15.973 61.4785 16.611 61.4785 17.447V21H60.4885V17.59C60.4885 16.9887 60.3381 16.5303 60.0375 16.215C59.7368 15.8923 59.3261 15.731 58.8055 15.731C58.2775 15.731 57.8558 15.896 57.5405 16.226C57.2325 16.556 57.0785 17.0363 57.0785 17.667V21H56.0775V14.972H57.0785V15.83C57.2765 15.522 57.5441 15.2837 57.8815 15.115C58.2261 14.9463 58.6038 14.862 59.0145 14.862ZM68.6136 17.755C68.6136 17.9457 68.6026 18.1473 68.5806 18.36H63.7626C63.7993 18.954 64.0009 19.4197 64.3676 19.757C64.7416 20.087 65.1926 20.252 65.7206 20.252C66.1533 20.252 66.5126 20.153 66.7986 19.955C67.0919 19.7497 67.2973 19.4783 67.4146 19.141H68.4926C68.3313 19.7203 68.0086 20.1933 67.5246 20.56C67.0406 20.9193 66.4393 21.099 65.7206 21.099C65.1486 21.099 64.6353 20.9707 64.1806 20.714C63.7333 20.4573 63.3813 20.0943 63.1246 19.625C62.8679 19.1483 62.7396 18.5983 62.7396 17.975C62.7396 17.3517 62.8643 16.8053 63.1136 16.336C63.3629 15.8667 63.7113 15.5073 64.1586 15.258C64.6133 15.0013 65.1339 14.873 65.7206 14.873C66.2926 14.873 66.7986 14.9977 67.2386 15.247C67.6786 15.4963 68.0159 15.841 68.2506 16.281C68.4926 16.7137 68.6136 17.205 68.6136 17.755ZM67.5796 17.546C67.5796 17.1647 67.4953 16.8383 67.3266 16.567C67.1579 16.2883 66.9269 16.0793 66.6336 15.94C66.3476 15.7933 66.0286 15.72 65.6766 15.72C65.1706 15.72 64.7379 15.8813 64.3786 16.204C64.0266 16.5267 63.8249 16.974 63.7736 17.546H67.5796ZM75.4965 21.099C74.9318 21.099 74.4185 20.9707 73.9565 20.714C73.5018 20.4573 73.1425 20.0943 72.8785 19.625C72.6218 19.1483 72.4935 18.5983 72.4935 17.975C72.4935 17.359 72.6255 16.8163 72.8895 16.347C73.1608 15.8703 73.5275 15.5073 73.9895 15.258C74.4515 15.0013 74.9685 14.873 75.5405 14.873C76.1125 14.873 76.6295 15.0013 77.0915 15.258C77.5535 15.5073 77.9165 15.8667 78.1805 16.336C78.4518 16.8053 78.5875 17.3517 78.5875 17.975C78.5875 18.5983 78.4482 19.1483 78.1695 19.625C77.8982 20.0943 77.5278 20.4573 77.0585 20.714C76.5892 20.9707 76.0685 21.099 75.4965 21.099ZM75.4965 20.219C75.8558 20.219 76.1932 20.1347 76.5085 19.966C76.8238 19.7973 77.0768 19.5443 77.2675 19.207C77.4655 18.8697 77.5645 18.459 77.5645 17.975C77.5645 17.491 77.4692 17.0803 77.2785 16.743C77.0878 16.4057 76.8385 16.1563 76.5305 15.995C76.2225 15.8263 75.8888 15.742 75.5295 15.742C75.1628 15.742 74.8255 15.8263 74.5175 15.995C74.2168 16.1563 73.9748 16.4057 73.7915 16.743C73.6082 17.0803 73.5165 17.491 73.5165 17.975C73.5165 18.4663 73.6045 18.8807 73.7805 19.218C73.9638 19.5553 74.2058 19.8083 74.5065 19.977C74.8072 20.1383 75.1372 20.219 75.4965 20.219ZM82.4623 17.964C82.4623 17.348 82.5869 16.809 82.8363 16.347C83.0856 15.8777 83.4266 15.5147 83.8593 15.258C84.2993 15.0013 84.7869 14.873 85.3223 14.873C85.8503 14.873 86.3086 14.9867 86.6973 15.214C87.0859 15.4413 87.3756 15.7273 87.5663 16.072V14.972H88.5783V21H87.5663V19.878C87.3683 20.23 87.0713 20.5233 86.6753 20.758C86.2866 20.9853 85.8319 21.099 85.3113 21.099C84.7759 21.099 84.2919 20.967 83.8593 20.703C83.4266 20.439 83.0856 20.0687 82.8363 19.592C82.5869 19.1153 82.4623 18.5727 82.4623 17.964ZM87.5663 17.975C87.5663 17.5203 87.4746 17.1243 87.2913 16.787C87.1079 16.4497 86.8586 16.193 86.5433 16.017C86.2353 15.8337 85.8943 15.742 85.5203 15.742C85.1463 15.742 84.8053 15.83 84.4973 16.006C84.1893 16.182 83.9436 16.4387 83.7603 16.776C83.5769 17.1133 83.4853 17.5093 83.4853 17.964C83.4853 18.426 83.5769 18.8293 83.7603 19.174C83.9436 19.5113 84.1893 19.7717 84.4973 19.955C84.8053 20.131 85.1463 20.219 85.5203 20.219C85.8943 20.219 86.2353 20.131 86.5433 19.955C86.8586 19.7717 87.1079 19.5113 87.2913 19.174C87.4746 18.8293 87.5663 18.4297 87.5663 17.975ZM91.2709 15.951C91.4469 15.6063 91.6962 15.3387 92.0189 15.148C92.3489 14.9573 92.7485 14.862 93.2179 14.862V15.896H92.9539C91.8319 15.896 91.2709 16.5047 91.2709 17.722V21H90.2699V14.972H91.2709V15.951ZM93.9994 17.964C93.9994 17.348 94.124 16.809 94.3734 16.347C94.6227 15.8777 94.9637 15.5147 95.3964 15.258C95.8364 15.0013 96.3277 14.873 96.8704 14.873C97.391 14.873 97.8457 14.9903 98.2344 15.225C98.6304 15.4523 98.92 15.7347 99.1034 16.072V14.972H100.115V23.86H99.1034V19.889C98.9127 20.2263 98.6194 20.5123 98.2234 20.747C97.8274 20.9817 97.3654 21.099 96.8374 21.099C96.3094 21.099 95.829 20.967 95.3964 20.703C94.9637 20.439 94.6227 20.0687 94.3734 19.592C94.124 19.1153 93.9994 18.5727 93.9994 17.964ZM99.1034 17.975C99.1034 17.5203 99.0117 17.1243 98.8284 16.787C98.645 16.4497 98.3957 16.193 98.0804 16.017C97.7724 15.8337 97.4314 15.742 97.0574 15.742C96.6834 15.742 96.3424 15.83 96.0344 16.006C95.7264 16.182 95.4807 16.4387 95.2974 16.776C95.114 17.1133 95.0224 17.5093 95.0224 17.964C95.0224 18.426 95.114 18.8293 95.2974 19.174C95.4807 19.5113 95.7264 19.7717 96.0344 19.955C96.3424 20.131 96.6834 20.219 97.0574 20.219C97.4314 20.219 97.7724 20.131 98.0804 19.955C98.3957 19.7717 98.645 19.5113 98.8284 19.174C99.0117 18.8293 99.1034 18.4297 99.1034 17.975ZM107.153 14.972V21H106.152V20.109C105.961 20.417 105.694 20.659 105.349 20.835C105.012 21.0037 104.638 21.088 104.227 21.088C103.758 21.088 103.336 20.9927 102.962 20.802C102.588 20.604 102.291 20.3107 102.071 19.922C101.858 19.5333 101.752 19.0603 101.752 18.503V14.972H102.742V18.371C102.742 18.965 102.892 19.4233 103.193 19.746C103.494 20.0613 103.904 20.219 104.425 20.219C104.96 20.219 105.382 20.054 105.69 19.724C105.998 19.394 106.152 18.9137 106.152 18.283V14.972H107.153ZM109.36 13.993C109.169 13.993 109.008 13.927 108.876 13.795C108.744 13.663 108.678 13.5017 108.678 13.311C108.678 13.1203 108.744 12.959 108.876 12.827C109.008 12.695 109.169 12.629 109.36 12.629C109.543 12.629 109.697 12.695 109.822 12.827C109.954 12.959 110.02 13.1203 110.02 13.311C110.02 13.5017 109.954 13.663 109.822 13.795C109.697 13.927 109.543 13.993 109.36 13.993ZM109.844 14.972V21H108.843V14.972H109.844ZM113.794 20.076L115.664 14.972H116.731L114.366 21H113.2L110.835 14.972H111.913L113.794 20.076ZM120.345 21.099C119.78 21.099 119.267 20.9707 118.805 20.714C118.35 20.4573 117.991 20.0943 117.727 19.625C117.47 19.1483 117.342 18.5983 117.342 17.975C117.342 17.359 117.474 16.8163 117.738 16.347C118.009 15.8703 118.376 15.5073 118.838 15.258C119.3 15.0013 119.817 14.873 120.389 14.873C120.961 14.873 121.478 15.0013 121.94 15.258C122.402 15.5073 122.765 15.8667 123.029 16.336C123.3 16.8053 123.436 17.3517 123.436 17.975C123.436 18.5983 123.297 19.1483 123.018 19.625C122.747 20.0943 122.376 20.4573 121.907 20.714C121.438 20.9707 120.917 21.099 120.345 21.099ZM120.345 20.219C120.704 20.219 121.042 20.1347 121.357 19.966C121.672 19.7973 121.925 19.5443 122.116 19.207C122.314 18.8697 122.413 18.459 122.413 17.975C122.413 17.491 122.318 17.0803 122.127 16.743C121.936 16.4057 121.687 16.1563 121.379 15.995C121.071 15.8263 120.737 15.742 120.378 15.742C120.011 15.742 119.674 15.8263 119.366 15.995C119.065 16.1563 118.823 16.4057 118.64 16.743C118.457 17.0803 118.365 17.491 118.365 17.975C118.365 18.4663 118.453 18.8807 118.629 19.218C118.812 19.5553 119.054 19.8083 119.355 19.977C119.656 20.1383 119.986 20.219 120.345 20.219Z" fill="white"/>
</svg>
